<?xml version="1.0" encoding="UTF-8"?>
<svg version="1.1" xmlns="http://www.w3.org/2000/svg" width="544" height="546">
<path d="M0 0 C2.77090878 -0.00218468 5.54141718 -0.02039726 8.31225586 -0.03930664 C18.7408771 -0.07234715 28.66378444 0.51108292 38.97436523 2.18530273 C40.68588014 2.41600464 42.39805625 2.6418977 44.11108398 2.86108398 C70.36568603 6.45227606 96.36450677 14.04591505 119.97436523 26.18530273 C120.77148926 26.58475098 121.56861328 26.98419922 122.38989258 27.39575195 C138.75573699 35.59844335 153.50695046 44.97152155 167.97436523 56.18530273 C168.81354492 56.82983398 169.65272461 57.47436523 170.51733398 58.13842773 C186.42009577 70.57747193 201.7100886 85.12939859 213.97436523 101.18530273 C214.73233398 102.17272461 215.49030273 103.16014648 216.27124023 104.17749023 C218.53324258 107.16060071 220.75852157 110.16780877 222.97436523 113.18530273 C223.53510742 113.92522461 224.09584961 114.66514648 224.67358398 115.42749023 C253.61545667 154.81086178 272.08531267 207.35350772 272.14233398 256.31030273 C272.14566238 257.33728271 272.14899078 258.3642627 272.15242004 259.42236328 C272.15744902 261.58373573 272.15982963 263.74511584 272.15966797 265.90649414 C272.16184111 269.14930621 272.18000395 272.39176994 272.19897461 275.63452148 C272.24031022 290.60802371 271.85278462 305.41441459 268.45780945 320.05130005 C267.77706063 323.05623789 267.25682308 326.08728609 266.70874023 329.11889648 C265.0852327 337.2720374 262.6649104 345.05969033 260.00561523 352.92871094 C259.22540917 355.24470389 258.46634575 357.56691044 257.70874023 359.89038086 C254.53397045 369.47127592 250.67264064 378.25559958 245.97436523 387.18530273 C244.92544944 389.36933601 243.88291792 391.55645736 242.84936523 393.74780273 C235.69961306 408.03120403 226.97395428 421.73228291 216.97436523 434.18530273 C216.26022461 435.09022461 215.54608398 435.99514648 214.81030273 436.92749023 C201.91471763 453.01279603 187.37438813 468.63844234 170.97436523 481.18530273 C170.04495117 481.9084668 169.11553711 482.63163086 168.15795898 483.37670898 C135.7880856 508.16056677 98.88983825 525.68859292 58.97436523 534.18530273 C57.92102493 534.43304443 57.92102493 534.43304443 56.84640503 534.68579102 C40.43731653 538.51055476 24.27205422 538.80981399 7.52539062 538.70678711 C3.78965029 538.68401874 0.05505145 538.69753709 -3.68064976 538.7205534 C-20.8251169 538.81008933 -37.228355 538.00989131 -54.02563477 534.18530273 C-55.21326416 533.92861816 -56.40089355 533.67193359 -57.62451172 533.4074707 C-60.34107547 532.78734431 -63.02552691 532.10721482 -65.71313477 531.37280273 C-66.65552002 531.11909912 -67.59790527 530.86539551 -68.56884766 530.60400391 C-105.39414316 520.46074985 -139.74839871 502.76541213 -169.02563477 478.18530273 C-169.54158203 477.75813965 -170.0575293 477.33097656 -170.58911133 476.89086914 C-196.56661877 455.35274554 -217.34544002 429.47566316 -234.02563477 400.18530273 C-234.37754883 399.56800293 -234.72946289 398.95070313 -235.09204102 398.31469727 C-239.60927386 390.31161085 -243.3842971 382.22858417 -246.66235352 373.64624023 C-247.82647509 370.69090582 -249.11407992 367.90133693 -250.52563477 365.06030273 C-259.3716527 345.94607749 -263.3649147 322.98115983 -266.02563477 302.18530273 C-266.12279785 301.43708252 -266.21996094 300.6888623 -266.32006836 299.91796875 C-267.41743293 289.94810629 -267.26760848 279.8899234 -267.27563477 269.87280273 C-267.27697418 268.88897614 -267.2783136 267.90514954 -267.2796936 266.89151001 C-267.27551467 252.76311234 -266.79234939 239.07816262 -264.02563477 225.18530273 C-263.80907227 223.92459961 -263.59250977 222.66389648 -263.36938477 221.36499023 C-259.19346519 198.34771926 -252.36502452 176.15457499 -242.02563477 155.18530273 C-241.36669063 153.82857559 -240.70783842 152.4718038 -240.04907227 151.11499023 C-236.04386534 142.92811845 -231.77539314 134.97053887 -227.02563477 127.18530273 C-226.23092773 125.85305664 -226.23092773 125.85305664 -225.42016602 124.49389648 C-220.90639834 117.12819959 -215.66029991 110.45827449 -210.25805664 103.73803711 C-208.7169082 101.79633662 -207.25073416 99.80244728 -205.77563477 97.81030273 C-187.42709237 74.26300666 -163.61174355 54.38274704 -138.02563477 39.18530273 C-137.19193359 38.68788574 -136.35823242 38.19046875 -135.49926758 37.67797852 C-122.72018385 30.11159309 -109.91809799 23.44609724 -96.02563477 18.18530273 C-95.34436523 17.92201172 -94.6630957 17.6587207 -93.96118164 17.38745117 C-63.54019103 5.71771132 -32.51333943 -0.00286184 0 0 Z " fill="#010101" transform="translate(270.025634765625,2.814697265625)"/>
<path d="M0 0 C2.77090878 -0.00218468 5.54141718 -0.02039726 8.31225586 -0.03930664 C18.7408771 -0.07234715 28.66378444 0.51108292 38.97436523 2.18530273 C40.68588014 2.41600464 42.39805625 2.6418977 44.11108398 2.86108398 C70.36568603 6.45227606 96.36450677 14.04591505 119.97436523 26.18530273 C120.77148926 26.58475098 121.56861328 26.98419922 122.38989258 27.39575195 C138.75573699 35.59844335 153.50695046 44.97152155 167.97436523 56.18530273 C168.81354492 56.82983398 169.65272461 57.47436523 170.51733398 58.13842773 C186.42009577 70.57747193 201.7100886 85.12939859 213.97436523 101.18530273 C214.73233398 102.17272461 215.49030273 103.16014648 216.27124023 104.17749023 C218.53324258 107.16060071 220.75852157 110.16780877 222.97436523 113.18530273 C223.53510742 113.92522461 224.09584961 114.66514648 224.67358398 115.42749023 C253.61545667 154.81086178 272.08531267 207.35350772 272.14233398 256.31030273 C272.14566238 257.33728271 272.14899078 258.3642627 272.15242004 259.42236328 C272.15744902 261.58373573 272.15982963 263.74511584 272.15966797 265.90649414 C272.16184111 269.14930621 272.18000395 272.39176994 272.19897461 275.63452148 C272.24031022 290.60802371 271.85278462 305.41441459 268.45780945 320.05130005 C267.77706063 323.05623789 267.25682308 326.08728609 266.70874023 329.11889648 C265.0852327 337.2720374 262.6649104 345.05969033 260.00561523 352.92871094 C259.22540917 355.24470389 258.46634575 357.56691044 257.70874023 359.89038086 C254.53397045 369.47127592 250.67264064 378.25559958 245.97436523 387.18530273 C244.92544944 389.36933601 243.88291792 391.55645736 242.84936523 393.74780273 C235.69961306 408.03120403 226.97395428 421.73228291 216.97436523 434.18530273 C216.26022461 435.09022461 215.54608398 435.99514648 214.81030273 436.92749023 C201.91471763 453.01279603 187.37438813 468.63844234 170.97436523 481.18530273 C170.04495117 481.9084668 169.11553711 482.63163086 168.15795898 483.37670898 C135.7880856 508.16056677 98.88983825 525.68859292 58.97436523 534.18530273 C57.92102493 534.43304443 57.92102493 534.43304443 56.84640503 534.68579102 C40.43731653 538.51055476 24.27205422 538.80981399 7.52539062 538.70678711 C3.78965029 538.68401874 0.05505145 538.69753709 -3.68064976 538.7205534 C-20.8251169 538.81008933 -37.228355 538.00989131 -54.02563477 534.18530273 C-55.21326416 533.92861816 -56.40089355 533.67193359 -57.62451172 533.4074707 C-60.34107547 532.78734431 -63.02552691 532.10721482 -65.71313477 531.37280273 C-66.65552002 531.11909912 -67.59790527 530.86539551 -68.56884766 530.60400391 C-105.39414316 520.46074985 -139.74839871 502.76541213 -169.02563477 478.18530273 C-169.54158203 477.75813965 -170.0575293 477.33097656 -170.58911133 476.89086914 C-196.56661877 455.35274554 -217.34544002 429.47566316 -234.02563477 400.18530273 C-234.37754883 399.56800293 -234.72946289 398.95070313 -235.09204102 398.31469727 C-239.60927386 390.31161085 -243.3842971 382.22858417 -246.66235352 373.64624023 C-247.82647509 370.69090582 -249.11407992 367.90133693 -250.52563477 365.06030273 C-259.3716527 345.94607749 -263.3649147 322.98115983 -266.02563477 302.18530273 C-266.12279785 301.43708252 -266.21996094 300.6888623 -266.32006836 299.91796875 C-267.41743293 289.94810629 -267.26760848 279.8899234 -267.27563477 269.87280273 C-267.27697418 268.88897614 -267.2783136 267.90514954 -267.2796936 266.89151001 C-267.27551467 252.76311234 -266.79234939 239.07816262 -264.02563477 225.18530273 C-263.80907227 223.92459961 -263.59250977 222.66389648 -263.36938477 221.36499023 C-259.19346519 198.34771926 -252.36502452 176.15457499 -242.02563477 155.18530273 C-241.36669063 153.82857559 -240.70783842 152.4718038 -240.04907227 151.11499023 C-236.04386534 142.92811845 -231.77539314 134.97053887 -227.02563477 127.18530273 C-226.23092773 125.85305664 -226.23092773 125.85305664 -225.42016602 124.49389648 C-220.90639834 117.12819959 -215.66029991 110.45827449 -210.25805664 103.73803711 C-208.7169082 101.79633662 -207.25073416 99.80244728 -205.77563477 97.81030273 C-187.42709237 74.26300666 -163.61174355 54.38274704 -138.02563477 39.18530273 C-137.19193359 38.68788574 -136.35823242 38.19046875 -135.49926758 37.67797852 C-122.72018385 30.11159309 -109.91809799 23.44609724 -96.02563477 18.18530273 C-95.34436523 17.92201172 -94.6630957 17.6587207 -93.96118164 17.38745117 C-63.54019103 5.71771132 -32.51333943 -0.00286184 0 0 Z M-40.02563477 46.18530273 C-41.21962891 46.41805908 -41.21962891 46.41805908 -42.43774414 46.65551758 C-50.03593673 48.18169017 -57.28958879 50.06121874 -64.41235352 53.17358398 C-69.08351911 54.98200235 -73.95626283 56.11570726 -78.80297852 57.35327148 C-80.89657334 57.8937996 -82.97434763 58.50154035 -85.02563477 59.18530273 C-85.02563477 59.84530273 -85.02563477 60.50530273 -85.02563477 61.18530273 C-86.94375977 61.52561523 -86.94375977 61.52561523 -88.90063477 61.87280273 C-94.35041354 63.07521424 -99.28154437 65.24848487 -104.02563477 68.18530273 C-104.35563477 68.84530273 -104.68563477 69.50530273 -105.02563477 70.18530273 C-106.68839015 70.90842265 -108.35379421 71.62615106 -110.03295898 72.31030273 C-113.4057508 73.79132281 -116.47603737 75.72539112 -119.58813477 77.68530273 C-120.28068359 78.12108643 -120.97323242 78.55687012 -121.68676758 79.00585938 C-132.42012407 85.88260478 -142.03764466 93.95503115 -151.30688477 102.67749023 C-153.23006962 104.45146247 -155.14517054 106.12730913 -157.16625977 107.77905273 C-159.46071286 109.70990398 -161.36302942 111.52524267 -163.27563477 113.81030273 C-165.21135058 116.0968142 -167.1564471 118.32096853 -169.23657227 120.47827148 C-177.31658903 128.91129869 -183.66133523 138.42586239 -190.02563477 148.18530273 C-190.50822754 148.9182959 -190.99082031 149.65128906 -191.48803711 150.40649414 C-191.93743652 151.10307129 -192.38683594 151.79964844 -192.84985352 152.51733398 C-193.24648193 153.12939697 -193.64311035 153.74145996 -194.05175781 154.37207031 C-195.08366244 156.29334273 -195.51227894 158.07637405 -196.02563477 160.18530273 C-197.00413671 161.20634825 -198.00543903 162.20591483 -199.02563477 163.18530273 C-200.91699467 166.27120573 -201.02563477 167.35851004 -201.02563477 171.18530273 C-201.68563477 171.18530273 -202.34563477 171.18530273 -203.02563477 171.18530273 C-205.28796986 176.68610736 -207.40919119 182.18898437 -209.24829102 187.84545898 C-211.04677808 193.25899541 -213.05361329 198.6054262 -215.06469727 203.94311523 C-215.40243164 204.84803711 -215.74016602 205.75295898 -216.08813477 206.68530273 C-216.38848633 207.47936523 -216.68883789 208.27342773 -216.99829102 209.09155273 C-229.09233917 245.51165213 -228.19132307 292.65948837 -217.02563477 329.18530273 C-216.01493415 332.67752898 -215.02928467 336.17156191 -214.09594727 339.68530273 C-212.35142254 346.14436948 -210.53964642 351.51754201 -207.02563477 357.18530273 C-206.31345046 359.12013871 -205.60168002 361.05512989 -204.89355469 362.99145508 C-203.44248395 366.6593374 -201.58675703 370.09396288 -199.71313477 373.56030273 C-199.11166626 374.68045776 -199.11166626 374.68045776 -198.49804688 375.82324219 C-190.99728142 389.71058904 -182.2402885 402.34991229 -172.33813477 414.62280273 C-171.55490845 415.59757568 -171.55490845 415.59757568 -170.75585938 416.59204102 C-167.09714925 421.06845877 -163.16719402 425.15580992 -159.02563477 429.18530273 C-156.59463077 431.60558171 -154.17557842 434.02823148 -151.80688477 436.50952148 C-145.37645719 443.17118019 -138.49756393 448.76666311 -131.02563477 454.18530273 C-130.43717773 454.61327148 -129.8487207 455.04124023 -129.24243164 455.48217773 C-122.15235344 460.87389253 -122.15235344 460.87389253 -114.02563477 464.18530273 C-112.99596527 465.15472561 -111.99797733 466.15838992 -111.02563477 467.18530273 C-104.44108788 471.68146721 -97.36828625 475.12586461 -90.02563477 478.18530273 C-88.42461914 478.86012695 -88.42461914 478.86012695 -86.79125977 479.54858398 C-58.33972169 490.87424989 -29.15239637 496.35877955 1.35302734 496.42553711 C4.00773015 496.43519672 6.66164127 496.46629799 9.31616211 496.49780273 C21.15513062 496.5707815 32.34994993 495.36897745 43.97436523 493.18530273 C45.03034912 493.0014502 46.08633301 492.81759766 47.17431641 492.62817383 C59.73724583 490.42996304 59.73724583 490.42996304 71.71264648 486.17358398 C74.31561931 485.03618826 76.94930499 484.2148789 79.66186523 483.37280273 C85.30825995 481.54193545 90.57396773 479.15637541 95.89892578 476.55908203 C98.88766017 475.10928403 101.69592763 473.80000978 104.97436523 473.18530273 C104.97436523 472.52530273 104.97436523 471.86530273 104.97436523 471.18530273 C106.03977539 470.91266602 106.03977539 470.91266602 107.12670898 470.63452148 C108.04581055 470.3831543 108.96491211 470.13178711 109.91186523 469.87280273 C110.82838867 469.62916992 111.74491211 469.38553711 112.68920898 469.13452148 C113.44331055 468.8212793 114.19741211 468.50803711 114.97436523 468.18530273 C115.30436523 467.19530273 115.63436523 466.20530273 115.97436523 465.18530273 C118.25170898 464.15795898 118.25170898 464.15795898 120.97436523 463.18530273 C140.57823134 452.82277386 159.91398339 436.42167672 173.97436523 419.18530273 C174.6562793 418.37963867 175.33819336 417.57397461 176.04077148 416.74389648 C184.41873534 406.73405098 191.88233285 396.28704589 198.53686523 385.06030273 C198.96668701 384.33762207 199.39650879 383.61494141 199.83935547 382.87036133 C200.23582275 382.18796387 200.63229004 381.50556641 201.04077148 380.80249023 C201.39083252 380.20033691 201.74089355 379.59818359 202.1015625 378.9777832 C203.03057888 377.06985641 203.53183682 375.25575441 203.97436523 373.18530273 C204.63436523 373.18530273 205.29436523 373.18530273 205.97436523 373.18530273 C206.21670898 372.57944336 206.45905273 371.97358398 206.70874023 371.34936523 C207.21147461 370.0925293 207.21147461 370.0925293 207.72436523 368.81030273 C208.09045898 367.8937793 208.45655273 366.97725586 208.83374023 366.03295898 C209.54884695 364.24764119 210.26710769 362.46358 210.98999023 360.68139648 C213.06488362 355.55179895 215.00746615 350.39423202 216.84155273 345.17358398 C217.97436523 342.18530273 217.97436523 342.18530273 219.41967773 339.10327148 C224.74529518 327.39494167 226.05943742 315.23327594 227.58886719 302.53930664 C227.97436523 300.18530273 227.97436523 300.18530273 228.97436523 299.18530273 C229.80958371 293.80458963 230.13290976 288.52913821 230.14233398 283.08374023 C230.14652344 282.33269012 230.15071289 281.58164001 230.1550293 280.80783081 C230.16474483 278.3919339 230.16482929 275.97621582 230.16186523 273.56030273 C230.16159332 272.73671265 230.16132141 271.91312256 230.16104126 271.0645752 C230.14599202 261.16578678 230.03242364 251.30280494 229.16186523 241.43530273 C229.09185303 240.60562988 229.02184082 239.77595703 228.94970703 238.92114258 C228.44672881 234.10398524 227.28654795 229.88738016 225.66308594 225.33276367 C224.64493517 222.15812554 224.31368012 218.99362291 223.97436523 215.68530273 C223.27465505 209.8289049 222.13151512 204.65830016 219.97436523 199.18530273 C219.64436523 198.19530273 219.31436523 197.20530273 218.97436523 196.18530273 C218.31436523 196.18530273 217.65436523 196.18530273 216.97436523 196.18530273 C216.87124023 195.33967773 216.76811523 194.49405273 216.66186523 193.62280273 C215.90072763 189.81711472 214.58353169 186.71309074 212.97436523 183.18530273 C212.49999023 182.09217773 212.02561523 180.99905273 211.53686523 179.87280273 C211.15401367 178.99301758 211.15401367 178.99301758 210.76342773 178.09545898 C210.22183788 176.78438257 209.71833143 175.45712056 209.24780273 174.11889648 C206.01217152 165.18311122 200.94785438 157.23659163 195.97436523 149.18530273 C195.32338867 148.12956055 194.67241211 147.07381836 194.00170898 145.98608398 C183.19517468 129.16827157 169.40992022 112.93025639 153.97436523 100.18530273 C153.03463867 99.35772461 152.09491211 98.53014648 151.12670898 97.67749023 C143.20682696 90.73209857 134.84857006 84.84313907 125.97436523 79.18530273 C125.09780273 78.61295898 124.22124023 78.04061523 123.31811523 77.45092773 C119.92008168 75.02640159 119.92008168 75.02640159 115.97436523 74.18530273 C115.97436523 73.52530273 115.97436523 72.86530273 115.97436523 72.18530273 C115.45229492 71.96616211 114.93022461 71.74702148 114.39233398 71.52124023 C109.99596591 69.62718323 105.81722665 67.56497192 101.66186523 65.18530273 C96.8249423 62.49132034 91.98523893 60.66842834 86.70092773 59.04467773 C83.97436523 58.18530273 83.97436523 58.18530273 81.31030273 57.07592773 C78.92383145 56.00717513 78.92383145 56.00717513 75.97436523 56.18530273 C75.97436523 55.52530273 75.97436523 54.86530273 75.97436523 54.18530273 C72.06078866 53.0493667 68.14300219 51.92864533 64.22436523 50.81030273 C63.1325293 50.49319336 62.04069336 50.17608398 60.91577148 49.84936523 C54.41793566 48.00382606 48.01533113 46.56614029 41.32885742 45.59301758 C38.97436523 45.18530273 38.97436523 45.18530273 36.97436523 44.18530273 C26.33567666 42.6314894 15.38849481 42.94333881 4.66186523 42.93530273 C3.72883575 42.93429565 2.79580627 42.93328857 1.83450317 42.93225098 C-12.30735152 42.94256896 -26.11430879 43.4152201 -40.02563477 46.18530273 Z " fill="#FDFDFD" transform="translate(270.025634765625,2.814697265625)"/>
<path d="M0 0 C5.54538664 3.21632425 9.91992153 7.69518552 12.125 13.8125 C13.05343198 20.1258375 12.42072406 26.28932848 9.125 31.8125 C7.59442139 33.30364799 7.59442139 33.30364799 5.73730469 34.81759644 C-0.05039913 39.73741046 -5.32604795 45.15619202 -10.671875 50.54345703 C-11.84208409 51.71886866 -13.01254191 52.89403271 -14.18322754 54.06896973 C-16.69011057 56.58573961 -19.19551312 59.10397062 -21.6998291 61.62329483 C-25.6643972 65.61105975 -29.63395809 69.59382945 -33.60449219 73.57565308 C-44.88977129 84.8942582 -56.17081246 96.21706345 -67.44140625 107.55029297 C-73.67658589 113.82004028 -79.91714661 120.08437909 -86.1637001 126.34279525 C-90.10811047 130.29527996 -94.04587509 134.25422969 -97.9788208 138.21812081 C-100.43049807 140.68585699 -102.88849901 143.14721828 -105.34831238 145.60684204 C-106.48285388 146.74379544 -107.61483596 147.88330985 -108.74397278 149.02563095 C-122.57761739 163.01396436 -122.57761739 163.01396436 -130.0703125 164.40625 C-131.03710938 164.3753125 -132.00390625 164.344375 -133 164.3125 C-134.45792969 164.29703125 -134.45792969 164.29703125 -135.9453125 164.28125 C-142.54639914 163.22507614 -146.66011832 159.46833541 -151.18408203 154.9074707 C-151.78325439 154.31516159 -152.38242676 153.72285248 -152.99975586 153.1125946 C-154.96849221 151.16208467 -156.926019 149.20076713 -158.8828125 147.23828125 C-160.25434526 145.87131274 -161.62624847 144.50471582 -162.99850464 143.13847351 C-165.86978333 140.27611818 -168.73532758 137.40816775 -171.59716797 134.53637695 C-175.25479664 130.86726867 -178.92801923 127.21423698 -182.60595894 123.56550312 C-185.44240625 120.74745459 -188.26942835 117.92009569 -191.09383774 115.0899868 C-192.44387832 113.73979341 -193.79700468 112.3926778 -195.15332413 111.04879189 C-197.05357468 109.16351566 -198.94050218 107.26579742 -200.82470703 105.36450195 C-201.38064545 104.81823151 -201.93658386 104.27196106 -202.5093689 103.70913696 C-207.12180397 99.00922096 -210.45208342 93.97720627 -211.3359375 87.36328125 C-211.29339844 85.76033203 -211.29339844 85.76033203 -211.25 84.125 C-211.23710937 83.04863281 -211.22421875 81.97226562 -211.2109375 80.86328125 C-210.64858295 75.75631723 -209.07782109 72.5933492 -205.4375 69 C-204.84066406 68.39542969 -204.24382812 67.79085937 -203.62890625 67.16796875 C-201.875 65.8125 -201.875 65.8125 -198.875 65.8125 C-198.875 65.1525 -198.875 64.4925 -198.875 63.8125 C-197.00074652 63.73061514 -195.12542946 63.67291243 -193.25 63.625 C-192.20585937 63.59019531 -191.16171875 63.55539063 -190.0859375 63.51953125 C-184.26222446 64.05089193 -180.26017191 67.05346373 -176.0625 70.93920898 C-175.20011719 71.73728973 -174.33773437 72.53537048 -173.44921875 73.3576355 C-169.52316048 77.10166117 -165.68188722 80.92033614 -161.875 84.78515625 C-160.23059491 86.4421825 -158.5860601 88.09908003 -156.94140625 89.75585938 C-154.38728104 92.3349862 -151.8348076 94.91571138 -149.28466797 97.4987793 C-146.7982418 100.0152051 -144.30579661 102.52554035 -141.8125 105.03515625 C-141.04486328 105.81625259 -140.27722656 106.59734894 -139.48632812 107.40211487 C-138.77798828 108.11383347 -138.06964844 108.82555206 -137.33984375 109.55883789 C-136.717146 110.18899307 -136.09444824 110.81914825 -135.45288086 111.46839905 C-133.96670994 113.02865364 -133.96670994 113.02865364 -131.875 112.8125 C-130.20419719 111.16089219 -130.20419719 111.16089219 -128.5 109.0625 C-123.310057 102.97699511 -123.310057 102.97699511 -120.875 100.8125 C-120.215 100.8125 -119.555 100.8125 -118.875 100.8125 C-118.875 100.1525 -118.875 99.4925 -118.875 98.8125 C-117.4478178 97.40643787 -117.4478178 97.40643787 -115.44889832 95.75727844 C-110.61156423 91.63993042 -106.15954717 87.20854173 -101.69262695 82.69604492 C-100.81191528 81.8106604 -99.93120361 80.92527588 -99.02380371 80.01306152 C-97.12451321 78.10332212 -95.22613724 76.19272066 -93.32915688 74.28069115 C-90.32738325 71.25566497 -87.32056893 68.23568263 -84.31278992 65.21662903 C-75.76623922 56.63679339 -67.2240391 48.05265777 -58.69213867 39.45825195 C-53.9676841 34.69927046 -49.23788536 29.94566911 -44.50207871 25.19798356 C-41.51186893 22.19968871 -38.52833987 19.1949505 -35.54958117 16.18528116 C-33.26219411 13.87811945 -30.96495056 11.58080701 -28.66918945 9.28198242 C-27.84881699 8.44925308 -27.02844452 7.61652374 -26.18321228 6.75856018 C-25.04171219 5.62107834 -25.04171219 5.62107834 -23.87715149 4.46061707 C-23.22108571 3.80048709 -22.56501993 3.14035711 -21.88907337 2.4602232 C-15.93149052 -2.41370424 -7.04836474 -2.72042148 0 0 Z " fill="#FCFCFC" transform="translate(372.875,191.1875)"/>
<path d="M0 0 C0 3.8508127 -1.51079844 4.86434695 -4.12498474 7.49824524 C-4.73278275 8.09525742 -5.34058075 8.69226959 -5.96679688 9.30737305 C-6.60077896 9.94179321 -7.23476105 10.57621338 -7.88795471 11.2298584 C-9.99118888 13.33099783 -12.10485993 15.42130464 -14.21875 17.51171875 C-15.67671786 18.96409312 -17.13402601 20.41713001 -18.59069824 21.87080383 C-22.43106397 25.69970146 -26.28035295 29.51950606 -30.13153076 33.33752441 C-34.05793023 37.23326548 -37.97587716 41.13748645 -41.89453125 45.04101562 C-49.58807687 52.70236241 -57.29107014 60.3541354 -65 68 C-65.66 67.67 -66.32 67.34 -67 67 C-58.72093023 57.41860465 -58.72093023 57.41860465 -56 55 C-55.34 55 -54.68 55 -54 55 C-54 54.34 -54 53.68 -54 53 C-52.63122559 51.65122986 -52.63122559 51.65122986 -50.67773438 50.04663086 C-45.21833297 45.40034612 -40.20836988 40.33360739 -35.15625 35.25390625 C-34.13657291 34.23235953 -33.11667144 33.21103674 -32.09655762 32.18992615 C-29.43774939 29.52733563 -26.78196042 26.86175401 -24.12683105 24.19549561 C-21.40671607 21.46507329 -18.68369815 18.73754926 -15.9609375 16.00976562 C-10.63781137 10.675978 -5.31787782 5.33902084 0 0 Z " fill="#D8D8D8" transform="translate(308,237)"/>
<path d="M0 0 C0.66 0.33 1.32 0.66 2 1 C-5.92 8.92 -13.84 16.84 -22 25 C-22.66 24.67 -23.32 24.34 -24 24 C-15.72093023 14.41860465 -15.72093023 14.41860465 -13 12 C-12.34 12 -11.68 12 -11 12 C-11 11.34 -11 10.68 -11 10 C-9.35546875 8.37890625 -9.35546875 8.37890625 -7.1875 6.5625 C-4.68897282 4.45536324 -2.2757944 2.34758602 0 0 Z " fill="#C2C2C2" transform="translate(265,280)"/>
<path d="M0 0 C0.66 0.33 1.32 0.66 2 1 C-3.28 6.28 -8.56 11.56 -14 17 C-14.66 16.67 -15.32 16.34 -16 16 C-13.06160475 11.95970652 -9.67856029 8.87179219 -5.90625 5.6484375 C-3.83599452 3.85817559 -1.89524622 1.97421482 0 0 Z " fill="#3E3E3E" transform="translate(124,100)"/>
<path d="M0 0 C-1.24176695 0.70226141 -2.49385599 1.38629109 -3.75 2.0625 C-4.79414063 2.63677734 -4.79414063 2.63677734 -5.859375 3.22265625 C-8.36140628 4.1312406 -9.5332355 3.88336837 -12 3 C-10.75823305 2.29773859 -9.50614401 1.61370891 -8.25 0.9375 C-7.20585937 0.36322266 -7.20585937 0.36322266 -6.140625 -0.22265625 C-3.63859372 -1.1312406 -2.4667645 -0.88336837 0 0 Z " fill="#9A9A9A" transform="translate(375,477)"/>
<path d="M0 0 C0.66 0.33 1.32 0.66 2 1 C0.02 2.98 -1.96 4.96 -4 7 C-4.66 6.67 -5.32 6.34 -6 6 C-2.25 1.125 -2.25 1.125 0 0 Z " fill="#373737" transform="translate(114,110)"/>
</svg>
