<?xml version="1.0" encoding="UTF-8"?>
<svg version="1.1" xmlns="http://www.w3.org/2000/svg" width="544" height="546">
<path d="M0 0 C3.23832888 0.00535825 6.47651909 0.00003086 9.71484375 -0.00634766 C32.35105071 -0.01462176 32.35105071 -0.01462176 39.24609375 1.13037109 C39.57609375 1.46037109 39.90609375 1.79037109 40.24609375 2.13037109 C42.0963889 2.47578707 43.95702145 2.76616131 45.8203125 3.03271484 C46.96306641 3.2009375 48.10582031 3.36916016 49.28320312 3.54248047 C51.69711144 3.88990761 54.11117189 4.2362795 56.52539062 4.58154297 C57.67458984 4.75105469 58.82378906 4.92056641 60.0078125 5.09521484 C61.05928467 5.24595459 62.11075684 5.39669434 63.1940918 5.55200195 C66.34247485 6.14863578 69.22670903 7.06766477 72.24609375 8.13037109 C73.86487799 8.53135435 75.48968487 8.90931466 77.12109375 9.25537109 C77.90226562 9.42294922 78.6834375 9.59052734 79.48828125 9.76318359 C80.06835938 9.88435547 80.6484375 10.00552734 81.24609375 10.13037109 C81.24609375 10.79037109 81.24609375 11.45037109 81.24609375 12.13037109 C82.37015625 12.23220703 83.49421875 12.33404297 84.65234375 12.43896484 C89.58361022 13.05537315 94.07238598 14.55250623 98.74609375 16.19287109 C99.56851562 16.47453125 100.3909375 16.75619141 101.23828125 17.04638672 C103.24326718 17.73414352 105.24503098 18.43128186 107.24609375 19.13037109 C107.24609375 19.79037109 107.24609375 20.45037109 107.24609375 21.13037109 C107.77976562 21.30052734 108.3134375 21.47068359 108.86328125 21.64599609 C114.76321085 23.56500434 120.50913844 25.77091348 126.24609375 28.13037109 C126.24609375 28.79037109 126.24609375 29.45037109 126.24609375 30.13037109 C127.29796875 30.39849609 128.34984375 30.66662109 129.43359375 30.94287109 C132.91784666 32.0281302 135.1897317 33.21674382 138.24609375 35.13037109 C139.18324219 35.68853516 140.12039063 36.24669922 141.0859375 36.82177734 C155.72489974 45.66422742 169.3845724 55.72356081 182.0859375 67.19287109 C184.1720492 69.06395862 186.2986466 70.87796346 188.43359375 72.69287109 C191.5573774 75.41378582 194.23763404 78.30591993 196.87109375 81.49755859 C199.38441747 84.48213051 202.20569827 87.16172703 205.05859375 89.81787109 C206.24609375 91.13037109 206.24609375 91.13037109 206.24609375 93.13037109 C207.23609375 93.46037109 208.22609375 93.79037109 209.24609375 94.13037109 C210.88647064 96.01354745 212.38621589 97.88063608 213.87109375 99.88037109 C214.3098584 100.46238281 214.74862305 101.04439453 215.20068359 101.64404297 C234.58010529 127.53901996 249.4579642 155.32968082 259.24609375 186.13037109 C259.7565625 187.63664062 259.7565625 187.63664062 260.27734375 189.17333984 C262.5834169 196.19862698 263.94977594 202.73724179 264.24609375 210.13037109 C264.90609375 210.13037109 265.56609375 210.13037109 266.24609375 210.13037109 C266.37455688 211.12218384 266.37455688 211.12218384 266.50561523 212.1340332 C266.89389203 215.1125698 267.28865425 218.09021095 267.68359375 221.06787109 C267.81830078 222.10878906 267.95300781 223.14970703 268.09179688 224.22216797 C268.22392578 225.21152344 268.35605469 226.20087891 268.4921875 227.22021484 C268.61263428 228.13665771 268.73308105 229.05310059 268.85717773 229.99731445 C269.03284448 232.10672322 269.03284448 232.10672322 270.24609375 233.13037109 C271.34579898 240.5487253 271.39435471 248.0534177 271.37890625 255.53662109 C271.37986298 256.58257446 271.3808197 257.62852783 271.38180542 258.70617676 C271.38248103 260.90112366 271.38067034 263.09607264 271.37646484 265.29101562 C271.37110781 268.62162835 271.37643108 271.95210624 271.3828125 275.28271484 C271.38215161 277.42985055 271.38087022 279.57698618 271.37890625 281.72412109 C271.38093048 282.70465454 271.38295471 283.68518799 271.38504028 284.69543457 C271.32378685 303.052678 271.32378685 303.052678 269.24609375 305.13037109 C268.94907361 306.75941377 268.70796429 308.3987474 268.4921875 310.04052734 C268.36005859 311.02988281 268.22792969 312.01923828 268.09179688 313.03857422 C267.95708984 314.07949219 267.82238281 315.12041016 267.68359375 316.19287109 C267.47573242 317.76004883 267.47573242 317.76004883 267.26367188 319.35888672 C266.92070108 321.94890754 266.58168744 324.53938579 266.24609375 327.13037109 C265.58609375 327.13037109 264.92609375 327.13037109 264.24609375 327.13037109 C264.19710937 327.74783203 264.148125 328.36529297 264.09765625 329.00146484 C262.54361808 346.60496621 256.00835491 363.5006036 248.51953125 379.40771484 C247.78654331 380.97487004 247.06517392 382.54782364 246.37719727 384.13525391 C244.0074862 389.59936193 241.35254846 394.81555324 238.43359375 400.00537109 C237.99418457 400.78984619 237.55477539 401.57432129 237.10205078 402.38256836 C231.4309698 412.43490645 225.16476936 421.89313753 218.24609375 431.13037109 C217.81796387 431.7073877 217.38983398 432.2844043 216.94873047 432.87890625 C215.5969437 434.69759465 214.23553315 436.50866149 212.87109375 438.31787109 C212.44207764 438.89520996 212.01306152 439.47254883 211.57104492 440.06738281 C210.51056473 441.45948793 209.38359899 442.80046255 208.24609375 444.13037109 C207.58609375 444.13037109 206.92609375 444.13037109 206.24609375 444.13037109 C205.87484375 444.96568359 205.87484375 444.96568359 205.49609375 445.81787109 C202.91481035 450.59324539 199.22007201 454.47012796 195.24609375 458.13037109 C194.58609375 458.13037109 193.92609375 458.13037109 193.24609375 458.13037109 C192.98699219 458.72591797 192.72789062 459.32146484 192.4609375 459.93505859 C191.14818862 462.30729291 189.88827448 463.53455419 187.80859375 465.25537109 C184.47978428 468.05826453 181.29042313 470.96079898 178.12109375 473.94287109 C169.61978508 481.68199347 160.11127472 487.99133228 150.49609375 494.25537109 C149.89949951 494.6460376 149.30290527 495.0367041 148.68823242 495.43920898 C144.48722987 498.13037109 144.48722987 498.13037109 142.24609375 498.13037109 C142.24609375 498.79037109 142.24609375 499.45037109 142.24609375 500.13037109 C140.30390093 501.1014675 138.3615387 502.07218841 136.41796875 503.04052734 C134.56140943 503.97214614 132.71513025 504.92420402 130.87109375 505.88037109 C128.24609375 507.13037109 128.24609375 507.13037109 126.24609375 507.13037109 C126.24609375 507.79037109 126.24609375 508.45037109 126.24609375 509.13037109 C125.67503906 509.34951172 125.10398437 509.56865234 124.515625 509.79443359 C119.48523054 511.76180567 114.60892174 513.90183157 109.74609375 516.25537109 C104.30736903 518.81021687 99.19530793 520.35146721 93.24609375 521.13037109 C93.24609375 521.79037109 93.24609375 522.45037109 93.24609375 523.13037109 C88.97993059 524.2680146 85.68123064 525.13037109 81.24609375 525.13037109 C81.24609375 525.79037109 81.24609375 526.45037109 81.24609375 527.13037109 C79.95574219 527.39591797 78.66539062 527.66146484 77.3359375 527.93505859 C75.61846125 528.29169301 73.90101491 528.64847149 72.18359375 529.00537109 C71.33603516 529.17939453 70.48847656 529.35341797 69.61523438 529.53271484 C65.90011055 530.30729665 62.28648777 531.11807726 58.65234375 532.22412109 C54.66464128 533.28506946 50.91446982 533.57505815 46.80859375 533.75537109 C45.7112793 533.81337891 45.7112793 533.81337891 44.59179688 533.87255859 C42.81025843 533.96571093 41.02821253 534.04907396 39.24609375 534.13037109 C39.24609375 534.79037109 39.24609375 535.45037109 39.24609375 536.13037109 C31.96478576 537.00939594 24.79494334 537.27755325 17.46484375 537.26318359 C15.82364563 537.26461868 15.82364563 537.26461868 14.14929199 537.26608276 C11.85001569 537.26675929 9.55073741 537.26494207 7.25146484 537.26074219 C3.75614076 537.25538649 0.26094515 537.26070525 -3.234375 537.26708984 C-5.48046903 537.26642897 -7.72656298 537.26514761 -9.97265625 537.26318359 C-11.0052356 537.26520782 -12.03781494 537.26723206 -13.10168457 537.26931763 C-30.67101223 537.21326512 -30.67101223 537.21326512 -32.75390625 535.13037109 C-34.38294893 534.83335095 -36.02228256 534.59224164 -37.6640625 534.37646484 C-38.65341797 534.24433594 -39.64277344 534.11220703 -40.66210938 533.97607422 C-41.70302734 533.84136719 -42.74394531 533.70666016 -43.81640625 533.56787109 C-44.86119141 533.42929687 -45.90597656 533.29072266 -46.98242188 533.14794922 C-49.57244269 532.80497843 -52.16292094 532.46596478 -54.75390625 532.13037109 C-54.75390625 531.47037109 -54.75390625 530.81037109 -54.75390625 530.13037109 C-55.37136719 530.08138672 -55.98882812 530.03240234 -56.625 529.98193359 C-64.7239876 529.26695448 -71.92074413 527.86369302 -79.52880859 524.95947266 C-83.40181648 523.5163374 -87.32920765 522.23725459 -91.25390625 520.94287109 C-92.07632813 520.67023437 -92.89875 520.39759766 -93.74609375 520.11669922 C-95.74823726 519.45319817 -97.75100621 518.79158489 -99.75390625 518.13037109 C-99.75390625 517.47037109 -99.75390625 516.81037109 -99.75390625 516.13037109 C-102.72390625 515.47037109 -105.69390625 514.81037109 -108.75390625 514.13037109 C-108.75390625 513.47037109 -108.75390625 512.81037109 -108.75390625 512.13037109 C-109.44613281 512.02853516 -110.13835937 511.92669922 -110.8515625 511.82177734 C-114.27902468 511.00527559 -117.04878748 509.66279553 -120.19140625 508.06787109 C-121.08980225 507.61238892 -121.08980225 507.61238892 -122.00634766 507.14770508 C-128.71778049 503.70466843 -135.24493365 499.93881251 -141.75390625 496.13037109 C-141.75390625 495.47037109 -141.75390625 494.81037109 -141.75390625 494.13037109 C-142.61628906 493.89576172 -143.47867188 493.66115234 -144.3671875 493.41943359 C-148.11097982 491.99446074 -150.87426923 490.00328578 -153.94140625 487.50537109 C-155.07963506 486.60164761 -156.21897739 485.69932499 -157.359375 484.79833984 C-157.92575684 484.34894043 -158.49213867 483.89954102 -159.07568359 483.43652344 C-161.58064035 481.48692805 -164.16653662 479.6559889 -166.75390625 477.81787109 C-170.43271573 475.15977176 -173.66590002 472.47571118 -176.75390625 469.13037109 C-179.9747507 465.81728289 -183.164316 462.60941317 -186.75390625 459.69287109 C-189.79508033 457.09520157 -192.29210633 454.36506182 -194.875 451.32568359 C-197.59060939 448.15276784 -200.42568339 445.08938423 -203.25 442.01318359 C-204.75390625 440.13037109 -204.75390625 440.13037109 -204.75390625 438.13037109 C-205.41390625 438.13037109 -206.07390625 438.13037109 -206.75390625 438.13037109 C-208.3046875 436.18896484 -208.3046875 436.18896484 -210.06640625 433.56787109 C-212.22707262 430.38111421 -214.40126057 427.22533939 -216.69140625 424.13037109 C-218.75390625 421.13037109 -218.75390625 421.13037109 -218.75390625 419.13037109 C-219.41390625 419.13037109 -220.07390625 419.13037109 -220.75390625 419.13037109 C-221.26179688 418.23576172 -221.7696875 417.34115234 -222.29296875 416.41943359 C-222.98807097 415.19795974 -223.68339975 413.9766148 -224.37890625 412.75537109 C-224.74282471 412.11559326 -225.10674316 411.47581543 -225.48168945 410.81665039 C-227.5740314 407.15149202 -229.72053883 403.53221035 -231.94140625 399.94287109 C-234.53603888 395.67018801 -236.60536346 391.2628916 -238.578125 386.67333984 C-239.71102084 384.07981201 -239.71102084 384.07981201 -241.32421875 381.63818359 C-242.8425696 378.97484685 -243.42019288 376.82487131 -243.94140625 373.81787109 C-244.17923828 372.49335937 -244.17923828 372.49335937 -244.421875 371.14208984 C-244.53144531 370.47822266 -244.64101562 369.81435547 -244.75390625 369.13037109 C-245.41390625 369.13037109 -246.07390625 369.13037109 -246.75390625 369.13037109 C-247.00785156 368.29634766 -247.26179688 367.46232422 -247.5234375 366.60302734 C-248.03970703 364.915 -248.03970703 364.915 -248.56640625 363.19287109 C-248.92863281 362.00822266 -249.29085937 360.82357422 -249.6640625 359.60302734 C-250.55787247 356.7550092 -251.50896151 353.94382726 -252.50390625 351.13037109 C-253.56044182 348.02929641 -254.07438411 345.44197561 -253.75390625 342.13037109 C-254.41390625 342.13037109 -255.07390625 342.13037109 -255.75390625 342.13037109 C-256.26124909 339.7567314 -256.75993011 337.38179684 -257.25390625 335.00537109 C-257.39699219 334.34021484 -257.54007812 333.67505859 -257.6875 332.98974609 C-258.51513455 328.96980687 -258.90721283 325.2313221 -258.75390625 321.13037109 C-259.41390625 321.13037109 -260.07390625 321.13037109 -260.75390625 321.13037109 C-260.83954834 320.33864502 -260.92519043 319.54691895 -261.01342773 318.73120117 C-261.40376983 315.13483524 -261.79755178 311.53885399 -262.19140625 307.94287109 C-262.32611328 306.69699219 -262.46082031 305.45111328 -262.59960938 304.16748047 C-262.73173828 302.96542969 -262.86386719 301.76337891 -263 300.52490234 C-263.12044678 299.41993408 -263.24089355 298.31496582 -263.36499023 297.17651367 C-263.6850881 294.24233786 -263.6850881 294.24233786 -264.29272461 291.85839844 C-265.01030175 287.61371503 -264.89606779 283.38435676 -264.88671875 279.08740234 C-264.88815384 277.64019051 -264.88815384 277.64019051 -264.88961792 276.16374207 C-264.89029687 274.13056371 -264.88846249 272.09738315 -264.88427734 270.06420898 C-264.87890757 266.94363585 -264.88424096 263.8232055 -264.890625 260.70263672 C-264.88996451 258.72672494 -264.88868396 256.75081325 -264.88671875 254.77490234 C-264.88874298 253.8384639 -264.89076721 252.90202545 -264.89285278 251.93721008 C-264.88970062 251.07258652 -264.88654846 250.20796295 -264.88330078 249.31713867 C-264.88250519 248.55500565 -264.88170959 247.79287262 -264.88088989 247.00764465 C-264.75390625 245.13037109 -264.75390625 245.13037109 -263.75390625 243.13037109 C-263.46232046 241.10190043 -263.21899291 239.06639482 -263 237.02880859 C-262.86787109 235.81708984 -262.73574219 234.60537109 -262.59960938 233.35693359 C-262.46490234 232.08591797 -262.33019531 230.81490234 -262.19140625 229.50537109 C-262.05283203 228.22662109 -261.91425781 226.94787109 -261.77148438 225.63037109 C-261.42886094 222.46405795 -261.08982258 219.29740167 -260.75390625 216.13037109 C-260.09390625 216.13037109 -259.43390625 216.13037109 -258.75390625 216.13037109 C-258.70492188 215.45232422 -258.6559375 214.77427734 -258.60546875 214.07568359 C-257.87970531 205.0411801 -256.42247339 196.67303203 -253.41796875 188.11474609 C-252.64869031 185.8159611 -252.1397341 183.52250375 -251.75390625 181.13037109 C-251.09390625 181.13037109 -250.43390625 181.13037109 -249.75390625 181.13037109 C-249.62113281 180.44330078 -249.48835938 179.75623047 -249.3515625 179.04833984 C-249.08666016 177.69675781 -249.08666016 177.69675781 -248.81640625 176.31787109 C-248.64238281 175.42455078 -248.46835938 174.53123047 -248.2890625 173.61083984 C-247.75390625 171.13037109 -247.75390625 171.13037109 -246.75390625 168.13037109 C-246.09390625 168.13037109 -245.43390625 168.13037109 -244.75390625 168.13037109 C-244.70234375 167.59412109 -244.65078125 167.05787109 -244.59765625 166.50537109 C-241.57678305 145.63388356 -224.7843581 124.24188201 -212.58203125 107.66162109 C-211.10862224 105.62151631 -209.72252218 103.56859182 -208.37890625 101.44287109 C-207.84265625 100.67974609 -207.30640625 99.91662109 -206.75390625 99.13037109 C-206.09390625 99.13037109 -205.43390625 99.13037109 -204.75390625 99.13037109 C-204.37105469 98.28925781 -204.37105469 98.28925781 -203.98046875 97.43115234 C-200.24591871 90.42589766 -194.60676042 84.73167262 -188.55078125 79.70849609 C-186.52119583 78.01459114 -186.52119583 78.01459114 -184.31640625 75.13037109 C-181.47076115 71.79888415 -178.38676771 69.41892622 -174.8984375 66.79833984 C-172.29682251 64.77486152 -170.04901422 62.49105358 -167.75390625 60.13037109 C-164.13321659 57.13037109 -164.13321659 57.13037109 -161.75390625 57.13037109 C-161.75390625 56.47037109 -161.75390625 55.81037109 -161.75390625 55.13037109 C-159.63671875 53.40380859 -159.63671875 53.40380859 -156.87890625 51.50537109 C-155.97398437 50.87373047 -155.0690625 50.24208984 -154.13671875 49.59130859 C-151.75390625 48.13037109 -151.75390625 48.13037109 -149.75390625 48.13037109 C-149.75390625 47.47037109 -149.75390625 46.81037109 -149.75390625 46.13037109 C-147.19921875 44.40380859 -147.19921875 44.40380859 -143.87890625 42.50537109 C-142.78835937 41.87373047 -141.6978125 41.24208984 -140.57421875 40.59130859 C-137.75390625 39.13037109 -137.75390625 39.13037109 -135.75390625 39.13037109 C-135.75390625 38.47037109 -135.75390625 37.81037109 -135.75390625 37.13037109 C-133.81171343 36.15927468 -131.8693512 35.18855377 -129.92578125 34.22021484 C-128.06922193 33.28859605 -126.22294275 32.33653817 -124.37890625 31.38037109 C-121.75390625 30.13037109 -121.75390625 30.13037109 -119.75390625 30.13037109 C-119.75390625 29.47037109 -119.75390625 28.81037109 -119.75390625 28.13037109 C-104.40365244 21.13037109 -104.40365244 21.13037109 -99.75390625 21.13037109 C-99.75390625 20.47037109 -99.75390625 19.81037109 -99.75390625 19.13037109 C-99.12484375 18.94861328 -98.49578125 18.76685547 -97.84765625 18.57958984 C-93.68851265 17.3581546 -89.59450692 16.11186311 -85.56640625 14.50537109 C-81.96251753 13.10345104 -78.59469316 12.53045306 -74.75390625 12.13037109 C-74.75390625 11.47037109 -74.75390625 10.81037109 -74.75390625 10.13037109 C-73.19273806 9.7908549 -71.62989287 9.45904565 -70.06640625 9.13037109 C-69.19628906 8.94474609 -68.32617188 8.75912109 -67.4296875 8.56787109 C-64.81677661 8.14065063 -62.39577587 8.05420909 -59.75390625 8.13037109 C-59.75390625 7.47037109 -59.75390625 6.81037109 -59.75390625 6.13037109 C-56.75505211 5.62250063 -53.75512499 5.12390484 -50.75390625 4.63037109 C-49.49513672 4.41574219 -49.49513672 4.41574219 -48.2109375 4.19677734 C-42.98208424 3.34556867 -38.05115598 2.98322527 -32.75390625 3.13037109 C-32.75390625 2.47037109 -32.75390625 1.81037109 -32.75390625 1.13037109 C-21.86729746 -0.17972245 -10.94670007 -0.02156168 0 0 Z M-36.24609375 46.52880859 C-40.46776518 47.54148367 -44.75360121 48.25470547 -49.03149414 48.98925781 C-52.83406906 49.66823969 -56.21914437 50.58238917 -59.75390625 52.13037109 C-61.10355524 52.60184157 -62.45780431 53.06035697 -63.81640625 53.50537109 C-64.59886719 53.76576172 -65.38132813 54.02615234 -66.1875 54.29443359 C-67.94559196 54.86708455 -69.70899445 55.42361195 -71.4765625 55.96630859 C-84.16235738 59.96156566 -95.92696826 66.11779368 -107.75390625 72.13037109 C-107.75390625 72.79037109 -107.75390625 73.45037109 -107.75390625 74.13037109 C-108.63949219 74.39849609 -109.52507812 74.66662109 -110.4375 74.94287109 C-119.63056965 78.23461806 -127.39385555 85.01205594 -135.00390625 90.99365234 C-137.75390625 93.13037109 -137.75390625 93.13037109 -140.75390625 95.13037109 C-140.75390625 95.79037109 -140.75390625 96.45037109 -140.75390625 97.13037109 C-141.29015625 97.35724609 -141.82640625 97.58412109 -142.37890625 97.81787109 C-145.57850786 99.58607199 -148.04427848 101.66707312 -150.75390625 104.13037109 C-150.75390625 104.79037109 -150.75390625 105.45037109 -150.75390625 106.13037109 C-151.65302734 106.52289063 -151.65302734 106.52289063 -152.5703125 106.92333984 C-154.88452389 108.20257297 -156.0505007 109.39287552 -157.69140625 111.44287109 C-159.41208042 113.57574019 -161.14935293 115.52318146 -163.09765625 117.45849609 C-165.99928544 120.37719369 -168.66508939 123.42379909 -171.31640625 126.56787109 C-172.01926758 127.38868164 -172.01926758 127.38868164 -172.73632812 128.22607422 C-175.68391643 131.70958767 -178.27499827 135.29009562 -180.75390625 139.13037109 C-181.40230469 140.08556641 -182.05070312 141.04076172 -182.71875 142.02490234 C-186.70533739 147.92189399 -190.47858556 153.81010395 -193.75390625 160.13037109 C-194.30949219 161.20158203 -194.86507812 162.27279297 -195.4375 163.37646484 C-199.24629264 170.81341632 -202.70745402 178.3461604 -205.75390625 186.13037109 C-206.14835937 187.13712891 -206.5428125 188.14388672 -206.94921875 189.18115234 C-209.16081007 194.98206166 -209.16081007 194.98206166 -209.75390625 201.13037109 C-210.41390625 201.13037109 -211.07390625 201.13037109 -211.75390625 201.13037109 C-212.15222656 202.95761719 -212.15222656 202.95761719 -212.55859375 204.82177734 C-212.9152497 206.4455005 -213.27202699 208.06919701 -213.62890625 209.69287109 C-213.88994141 210.89266602 -213.88994141 210.89266602 -214.15625 212.11669922 C-214.94182363 215.68087589 -215.76544456 219.16862081 -216.8203125 222.66552734 C-217.92682513 226.77212442 -218.39778451 230.78275178 -218.81640625 235.00537109 C-219.62541788 243.00188272 -219.62541788 243.00188272 -220.75390625 244.13037109 C-220.99637602 247.09389046 -221.18049253 250.03652334 -221.31640625 253.00537109 C-221.35813965 253.87871094 -221.39987305 254.75205078 -221.44287109 255.65185547 C-221.87905061 265.23000155 -221.77396595 274.68018354 -221.31640625 284.25537109 C-221.25767334 285.53831055 -221.25767334 285.53831055 -221.19775391 286.84716797 C-221.3628641 290.81134154 -221.3628641 290.81134154 -219.75390625 294.13037109 C-219.48014337 295.76265654 -219.26275084 297.40448177 -219.0703125 299.04833984 C-218.94720703 300.05574219 -218.82410156 301.06314453 -218.69726562 302.10107422 C-218.44569378 304.22588871 -218.1956642 306.35088643 -217.94726562 308.47607422 C-217.31689856 313.61372913 -216.57151633 318.2574787 -214.75390625 323.13037109 C-214.18645602 325.4157899 -213.64470034 327.70774289 -213.12890625 330.00537109 C-212.86851562 331.15779297 -212.608125 332.31021484 -212.33984375 333.49755859 C-212.14648438 334.36638672 -211.953125 335.23521484 -211.75390625 336.13037109 C-211.09390625 336.13037109 -210.43390625 336.13037109 -209.75390625 336.13037109 C-209.58761719 337.88994141 -209.58761719 337.88994141 -209.41796875 339.68505859 C-207.95120112 351.31187514 -201.12315302 362.88221973 -195.75390625 373.13037109 C-195.27179688 374.06365234 -194.7896875 374.99693359 -194.29296875 375.95849609 C-188.81632381 386.30663183 -182.53062276 396.25277598 -175.1640625 405.36083984 C-173.75390625 407.13037109 -173.75390625 407.13037109 -171.75390625 410.13037109 C-171.09390625 410.13037109 -170.43390625 410.13037109 -169.75390625 410.13037109 C-169.52703125 410.83162109 -169.30015625 411.53287109 -169.06640625 412.25537109 C-166.57392905 417.71508305 -162.13949567 422.10037001 -157.75390625 426.13037109 C-157.09390625 426.13037109 -156.43390625 426.13037109 -155.75390625 426.13037109 C-155.4909375 426.72849609 -155.22796875 427.32662109 -154.95703125 427.94287109 C-153.68406468 430.25735577 -152.52088045 431.44663611 -150.50390625 433.13037109 C-147.89760166 435.32171843 -145.31755255 437.52142658 -142.78125 439.79443359 C-136.09241577 445.7588779 -129.15333768 451.13141727 -121.75390625 456.19287109 C-120.95299561 456.74088379 -120.15208496 457.28889648 -119.3269043 457.85351562 C-115.24455356 460.59853717 -111.20225951 463.01018194 -106.75390625 465.13037109 C-105.31055575 465.89248356 -103.87076292 466.66135267 -102.43359375 467.43505859 C-85.95525481 476.85118463 -85.95525481 476.85118463 -67.75390625 481.13037109 C-67.75390625 481.79037109 -67.75390625 482.45037109 -67.75390625 483.13037109 C-66.94566406 483.32373047 -66.13742188 483.51708984 -65.3046875 483.71630859 C-63.70173828 484.10689453 -63.70173828 484.10689453 -62.06640625 484.50537109 C-60.48279297 484.88822266 -60.48279297 484.88822266 -58.8671875 485.27880859 C-55.75390625 486.13037109 -55.75390625 486.13037109 -53.46875 487.13427734 C-49.41792337 488.62055186 -45.26367792 489.08935022 -41.00390625 489.69287109 C-39.279416 489.94049672 -37.55542152 490.19160871 -35.83203125 490.44677734 C-35.0730957 490.55449463 -34.31416016 490.66221191 -33.53222656 490.77319336 C-31.75390625 491.13037109 -31.75390625 491.13037109 -30.75390625 492.13037109 C-22.85440679 493.26735598 -14.91032497 493.50106689 -6.94140625 493.75537109 C-6.25914978 493.77782898 -5.57689331 493.80028687 -4.8739624 493.82342529 C9.61436431 494.28351352 23.84808872 493.80587858 38.24609375 492.13037109 C38.24609375 491.47037109 38.24609375 490.81037109 38.24609375 490.13037109 C39.15230469 490.08138672 40.05851562 490.03240234 40.9921875 489.98193359 C60.62750775 488.77680283 79.21184275 481.77119849 97.24609375 474.13037109 C97.24609375 473.47037109 97.24609375 472.81037109 97.24609375 472.13037109 C98.46232422 472.02982422 98.46232422 472.02982422 99.703125 471.92724609 C104.3460563 470.88297048 107.87030212 468.80124277 111.93359375 466.38037109 C112.74997314 465.90027588 113.56635254 465.42018066 114.4074707 464.92553711 C120.71126716 461.16492383 126.85581792 457.18248433 132.93359375 453.06787109 C133.76528076 452.5080957 134.59696777 451.94832031 135.45385742 451.37158203 C136.2141626 450.84725586 136.97446777 450.32292969 137.7578125 449.78271484 C138.43287842 449.31857178 139.10794434 448.85442871 139.8034668 448.3762207 C140.27953369 447.96509033 140.75560059 447.55395996 141.24609375 447.13037109 C141.24609375 446.47037109 141.24609375 445.81037109 141.24609375 445.13037109 C141.92671875 444.94474609 142.60734375 444.75912109 143.30859375 444.56787109 C146.75115051 442.88321566 148.74069035 440.79972227 151.36328125 438.05224609 C153.22572436 436.15116309 155.16133083 434.42170763 157.18359375 432.69287109 C165.24101738 425.72428849 173.18568094 417.93889902 179.24609375 409.13037109 C179.24609375 408.47037109 179.24609375 407.81037109 179.24609375 407.13037109 C179.90609375 407.13037109 180.56609375 407.13037109 181.24609375 407.13037109 C182.48469902 405.76428753 182.48469902 405.76428753 183.671875 403.94677734 C184.13682373 403.27018066 184.60177246 402.59358398 185.08081055 401.89648438 C185.568479 401.16929199 186.05614746 400.44209961 186.55859375 399.69287109 C187.05335205 398.96310059 187.54811035 398.23333008 188.05786133 397.48144531 C194.2835689 389.39788169 194.2835689 389.39788169 197.24609375 380.13037109 C197.90609375 380.13037109 198.56609375 380.13037109 199.24609375 380.13037109 C205.41653708 367.20783871 205.41653708 367.20783871 211.24609375 354.13037109 C211.61734375 353.26669922 211.98859375 352.40302734 212.37109375 351.51318359 C212.74234375 350.62373047 213.11359375 349.73427734 213.49609375 348.81787109 C213.83125 348.01736328 214.16640625 347.21685547 214.51171875 346.39208984 C215.45197779 343.8926182 215.45197779 343.8926182 215.24609375 340.13037109 C215.90609375 340.13037109 216.56609375 340.13037109 217.24609375 340.13037109 C217.51164062 338.97279297 217.7771875 337.81521484 218.05078125 336.62255859 C218.40740139 335.08346117 218.76418066 333.54440061 219.12109375 332.00537109 C219.38212891 330.86455078 219.38212891 330.86455078 219.6484375 329.70068359 C220.64473826 325.42028035 221.81021755 321.28946078 223.24609375 317.13037109 C224.27581736 312.39364247 224.32924112 307.95291842 224.24609375 303.13037109 C224.90609375 303.13037109 225.56609375 303.13037109 226.24609375 303.13037109 C226.99619334 296.85852999 227.50772433 290.62626432 227.80859375 284.31787109 C227.85177734 283.50511719 227.89496094 282.69236328 227.93945312 281.85498047 C228.50846374 270.32122561 228.15900158 258.95654877 227.30859375 247.44287109 C227.22158203 246.16992188 227.13457031 244.89697266 227.04492188 243.58544922 C226.95791016 242.37953125 226.87089844 241.17361328 226.78125 239.93115234 C226.70269775 238.83971924 226.62414551 237.74828613 226.54321289 236.6237793 C226.51413424 234.19225455 226.51413424 234.19225455 225.24609375 233.13037109 C224.58453918 229.42944582 224.00277844 225.72407907 223.43945312 222.00732422 C222.73155966 217.52155374 221.77615651 213.42288178 220.24609375 209.13037109 C219.68394205 207.01069818 219.1418164 204.88560012 218.62109375 202.75537109 C218.23050781 201.16595703 218.23050781 201.16595703 217.83203125 199.54443359 C217.63867188 198.74779297 217.4453125 197.95115234 217.24609375 197.13037109 C216.58609375 197.13037109 215.92609375 197.13037109 215.24609375 197.13037109 C215.16359375 195.99599609 215.08109375 194.86162109 214.99609375 193.69287109 C214.48083831 189.64846879 213.24436451 186.44523665 211.5 182.78271484 C209.90792766 179.41506026 208.45363905 175.9954103 206.99609375 172.56787109 C206.47018181 171.33734689 205.94415048 170.10687371 205.41796875 168.87646484 C205.03125 167.97025391 204.64453125 167.06404297 204.24609375 166.13037109 C203.58609375 166.13037109 202.92609375 166.13037109 202.24609375 166.13037109 C201.25609375 163.16037109 200.26609375 160.19037109 199.24609375 157.13037109 C198.58609375 157.13037109 197.92609375 157.13037109 197.24609375 157.13037109 C197.14425781 156.39947266 197.04242188 155.66857422 196.9375 154.91552734 C196.17055376 151.82607725 195.07400186 150.11281687 193.18359375 147.56787109 C189.57816497 142.62902961 186.24505273 137.55114404 182.9453125 132.40380859 C182.10419922 131.27845703 182.10419922 131.27845703 181.24609375 130.13037109 C180.58609375 130.13037109 179.92609375 130.13037109 179.24609375 130.13037109 C178.97345703 129.1384375 178.97345703 129.1384375 178.6953125 128.12646484 C176.58215144 123.75774642 173.40592411 120.66675978 170.05859375 117.19287109 C169.34388916 116.44505371 168.62918457 115.69723633 167.89282227 114.92675781 C156.59257189 103.20217252 144.95664846 92.0286119 131.24609375 83.13037109 C130.58609375 83.13037109 129.92609375 83.13037109 129.24609375 83.13037109 C129.24609375 82.47037109 129.24609375 81.81037109 129.24609375 81.13037109 C128.3746875 80.63408203 127.50328125 80.13779297 126.60546875 79.62646484 C126.03505859 79.30105713 125.46464844 78.97564941 124.87695312 78.64038086 C123.61322469 77.91977351 122.34889176 77.20022533 121.08398438 76.48168945 C117.98332654 74.71560513 114.90765163 72.92527829 111.85546875 71.07568359 C110.829375 70.45435547 109.80328125 69.83302734 108.74609375 69.19287109 C107.82828125 68.62697266 106.91046875 68.06107422 105.96484375 67.47802734 C103.02665272 66.02159644 100.48889451 65.50710824 97.24609375 65.13037109 C97.24609375 64.47037109 97.24609375 63.81037109 97.24609375 63.13037109 C93.87511992 61.6321605 92.04167256 61.13037109 88.24609375 61.13037109 C88.24609375 60.47037109 88.24609375 59.81037109 88.24609375 59.13037109 C87.40046875 58.87642578 86.55484375 58.62248047 85.68359375 58.36083984 C75.2966705 55.2093529 75.2966705 55.2093529 70.74609375 53.38037109 C67.5926404 52.25413775 65.54117584 51.82145715 62.24609375 52.13037109 C62.24609375 51.47037109 62.24609375 50.81037109 62.24609375 50.13037109 C61.59012207 50.01443604 60.93415039 49.89850098 60.25830078 49.77905273 C57.29531926 49.2535319 54.33320721 48.72326192 51.37109375 48.19287109 C50.33855469 48.01046875 49.30601562 47.82806641 48.2421875 47.64013672 C46.76298828 47.37426758 46.76298828 47.37426758 45.25390625 47.10302734 C44.3427002 46.94068604 43.43149414 46.77834473 42.49267578 46.61108398 C40.24609375 46.13037109 40.24609375 46.13037109 38.24609375 45.13037109 C30.34215757 44.0119683 22.40495339 43.75975319 14.43359375 43.50537109 C13.75133728 43.48291321 13.06908081 43.46045532 12.3661499 43.43731689 C-12.14703057 42.61945981 -12.14703057 42.61945981 -36.24609375 46.52880859 Z " fill="#353535" transform="translate(268.75390625,6.86962890625)"/>
<path d="M0 0 C5.96779521 3.62450839 9.73260313 9.0158936 11.765625 15.6796875 C12.67468825 24.871327 10.44843339 30.2731568 4.76171875 37.4140625 C2.276869 40.23443991 -0.44464127 42.59503903 -3.328125 44.99609375 C-5.74309624 47.12898843 -7.6973053 49.51262979 -9.73828125 51.99609375 C-11.79503116 54.31060866 -14.13580671 56.18590141 -16.51953125 58.15234375 C-18.25845646 59.7011359 -19.69457169 61.31960162 -21.171875 63.1171875 C-23.93901798 66.47623272 -27.05197049 69.18554832 -30.36328125 71.99609375 C-32.4496399 73.79275648 -32.4496399 73.79275648 -34.734375 76.6796875 C-37.36470516 79.83608369 -40.20958761 82.30785345 -43.328125 84.9609375 C-45.44389784 86.78689279 -45.44389784 86.78689279 -47.734375 89.6796875 C-49.80119356 92.15986977 -51.73216477 94.04643156 -54.171875 96.1171875 C-56.77420275 98.33038213 -59.06702828 100.53989463 -61.234375 103.1796875 C-63.97676312 106.51987139 -67.07501856 109.20511086 -70.36328125 111.99609375 C-72.4496399 113.79275648 -72.4496399 113.79275648 -74.734375 116.6796875 C-76.80119356 119.15986977 -78.73216477 121.04643156 -81.171875 123.1171875 C-84.39321536 125.85593005 -87.059949 128.73709326 -89.73828125 131.99609375 C-91.79384971 134.30927914 -94.13282122 136.18366947 -96.515625 138.1484375 C-98.27601897 139.71678849 -99.73556057 141.36197639 -101.234375 143.1796875 C-103.72487854 146.19867986 -106.42870673 148.59581797 -109.4453125 151.07421875 C-111.42681298 152.85237747 -113.08608767 154.76606208 -114.796875 156.8046875 C-118.4257574 161.06964367 -121.84126493 163.88198414 -127.234375 165.6796875 C-136.98858613 166.3568824 -143.18268022 165.66401052 -150.73828125 159.12890625 C-152.89321021 157.04149465 -154.7574254 154.74320621 -156.66796875 152.43359375 C-158.25023264 150.66193169 -159.90285343 149.1891833 -161.734375 147.6796875 C-164.17182789 145.66985792 -166.22454542 143.61714039 -168.234375 141.1796875 C-170.22682843 138.76443228 -172.25311707 136.72998633 -174.671875 134.7421875 C-178.03092022 131.97504452 -180.74023582 128.86209201 -183.55078125 125.55078125 C-185.34744398 123.4644226 -185.34744398 123.4644226 -188.234375 121.1796875 C-191.39551396 118.54540503 -193.91758217 115.70905657 -196.58203125 112.58984375 C-199.19101933 109.57377952 -202.01749598 106.79447009 -204.95703125 104.1015625 C-210.60282938 98.77940885 -214.32429295 93.75152777 -214.796875 85.8046875 C-214.50936951 79.37051285 -211.97176987 73.72503929 -207.671875 68.94140625 C-205.09158988 66.6514032 -203.74213111 65.6796875 -200.234375 65.6796875 C-200.234375 65.0196875 -200.234375 64.3596875 -200.234375 63.6796875 C-194.47591061 62.28369613 -188.99283939 62.28369613 -183.234375 63.6796875 C-183.234375 64.3396875 -183.234375 64.9996875 -183.234375 65.6796875 C-182.64978516 65.78321533 -182.06519531 65.88674316 -181.46289062 65.9934082 C-173.89238153 68.32477335 -167.20009804 77.53091537 -161.734375 82.9921875 C-160.91195312 83.80236328 -160.08953125 84.61253906 -159.2421875 85.44726562 C-158.07816406 86.60838867 -158.07816406 86.60838867 -156.890625 87.79296875 C-156.18744141 88.49204346 -155.48425781 89.19111816 -154.75976562 89.91137695 C-153.234375 91.6796875 -153.234375 91.6796875 -153.234375 93.6796875 C-152.63238281 93.94265625 -152.03039062 94.205625 -151.41015625 94.4765625 C-149.1153892 95.74548216 -148.02299149 96.88099666 -146.421875 98.9296875 C-143.81535269 102.10514615 -141.02261727 104.72195359 -137.84765625 107.3203125 C-136.21572487 108.69540238 -134.73404112 110.16301243 -133.234375 111.6796875 C-126.68543913 105.15399723 -120.1392639 98.62555351 -113.59652519 92.09364986 C-110.55787068 89.06019755 -107.5182999 86.0276757 -104.4765625 82.99731445 C-101.53712555 80.06880146 -98.60019066 77.13780003 -95.66492081 74.20511055 C-94.54875212 73.09077906 -93.4317087 71.97732299 -92.31374741 70.86478996 C-86.72851268 65.30558027 -81.31740197 59.70910237 -76.234375 53.6796875 C-74.50644035 52.14588647 -72.73556886 50.68067191 -70.953125 49.2109375 C-69.19273103 47.64258651 -67.73318943 45.99739861 -66.234375 44.1796875 C-64.24192157 41.76443228 -62.21563293 39.72998633 -59.796875 37.7421875 C-56.44448227 34.97442838 -53.68989735 31.8822485 -50.87109375 28.58203125 C-48.76294603 26.13174977 -46.62075901 23.86152431 -44.234375 21.6796875 C-43.574375 21.6796875 -42.914375 21.6796875 -42.234375 21.6796875 C-41.8940625 20.844375 -41.8940625 20.844375 -41.546875 19.9921875 C-39.85887464 17.01809162 -37.76760983 14.95959885 -35.234375 12.6796875 C-34.574375 12.6796875 -33.914375 12.6796875 -33.234375 12.6796875 C-32.574375 11.3596875 -31.914375 10.0396875 -31.234375 8.6796875 C-30.574375 8.6796875 -29.914375 8.6796875 -29.234375 8.6796875 C-28.8321875 7.720625 -28.8321875 7.720625 -28.421875 6.7421875 C-27.234375 4.6796875 -27.234375 4.6796875 -24.234375 3.6796875 C-24.234375 3.0196875 -24.234375 2.3596875 -24.234375 1.6796875 C-17.03340579 -2.43515205 -7.71175186 -3.14803397 0 0 Z " fill="#343434" transform="translate(373.234375,193.3203125)"/>
</svg>
