<?xml version="1.0" encoding="UTF-8"?>
<svg version="1.1" xmlns="http://www.w3.org/2000/svg" width="544" height="546">
<path d="M0 0 C0.66 0.33 1.32 0.66 2 1 C2 1.66 2 2.32 2 3 C138.62 3 275.24 3 416 3 C416 2.34 416 1.68 416 1 C417.98 1.495 417.98 1.495 420 2 C419.67 2.66 419.34 3.32 419 4 C418.01 4 417.02 4 416 4 C416.66 6.31 417.32 8.62 418 11 C418.99 11 419.98 11 421 11 C422.19819225 14.59457676 422.13641848 17.85942634 422.12304783 21.59998608 C422.12420167 22.38516463 422.12535552 23.17034317 422.12654433 23.97931501 C422.1292087 26.63224227 422.12469027 29.28510984 422.12025452 31.93803406 C422.12069025 33.85040594 422.12156521 35.76277776 422.12284368 37.67514926 C422.12508813 42.94730746 422.12106802 48.21944548 422.11606562 53.49160111 C422.1117606 59.17053804 422.11320758 64.84947376 422.1139679 70.52841187 C422.1144931 80.37324482 422.11134668 90.21807116 422.10573006 100.06290245 C422.09761455 114.29700344 422.09499978 128.53110123 422.09374207 142.76520429 C422.09155163 165.85722476 422.08490032 188.94924127 422.07543945 212.04125977 C422.06625787 234.4774575 422.05917286 256.91365428 422.05493164 279.34985352 C422.05480011 280.04120682 422.05466859 280.73256013 422.05453308 281.44486354 C422.05321458 288.38759884 422.05193876 295.33033415 422.05069422 302.27306946 C422.0402498 360.51538201 422.02260046 418.75769094 422 477 C422.66 477 423.32 477 424 477 C424 478.98 424 480.96 424 483 C423.360625 483.268125 422.72125 483.53625 422.0625 483.8125 C419.66868314 484.88667752 419.66868314 484.88667752 419 488 C417.35 488.33 415.7 488.66 414 489 C413.67 489.99 413.34 490.98 413 492 C406.76552084 493.03907986 400.13111842 494.04370614 394 492 C394 491.34 394 490.68 394 490 C403.405 489.505 403.405 489.505 413 489 C413.66 487.68 414.32 486.36 415 485 C415.845625 484.38125 416.69125 483.7625 417.5625 483.125 C420.29014345 481.15596065 420.29014345 481.15596065 420.8125 477.75 C420.874375 476.8425 420.93625 475.935 421 475 C420.01 475.33 419.02 475.66 418 476 C417.67 477.65 417.34 479.3 417 481 C415.35 481.33 413.7 481.66 412 482 C411.67 483.32 411.34 484.64 411 486 C405.39 486 399.78 486 394 486 C393.67 484.68 393.34 483.36 393 482 C391.02 481.67 389.04 481.34 387 481 C387 479.68 387 478.36 387 477 C385.68 476.67 384.36 476.34 383 476 C382.67 474.68 382.34 473.36 382 472 C380.68 472 379.36 472 378 472 C377.67 470.68 377.34 469.36 377 468 C375.68 467.67 374.36 467.34 373 467 C372.9175 466.38125 372.835 465.7625 372.75 465.125 C372.20605562 462.82027141 372.20605562 462.82027141 370 461.9375 C369.34 461.628125 368.68 461.31875 368 461 C367.67 460.01 367.34 459.02 367 458 C366.01 457.67 365.02 457.34 364 457 C363.33333333 455.66666667 362.66666667 454.33333333 362 453 C361.01 452.67 360.02 452.34 359 452 C358.3125 449.9375 358.3125 449.9375 358 448 C356.68 447.67 355.36 447.34 354 447 C354 445.68 354 444.36 354 443 C352.35 442.67 350.7 442.34 349 442 C349 440.68 349 439.36 349 438 C347.35 438 345.7 438 344 438 C344 436.35 344 434.7 344 433 C342.68 433 341.36 433 340 433 C339.67 431.68 339.34 430.36 339 429 C337.68 428.67 336.36 428.34 335 428 C334.67 426.68 334.34 425.36 334 424 C332.68 423.67 331.36 423.34 330 423 C329.67 421.68 329.34 420.36 329 419 C327.68 418.67 326.36 418.34 325 418 C324.67 416.68 324.34 415.36 324 414 C322.68 413.67 321.36 413.34 320 413 C320 411.68 320 410.36 320 409 C318.68 409 317.36 409 316 409 C315.9175 408.38125 315.835 407.7625 315.75 407.125 C315.20605562 404.82027141 315.20605562 404.82027141 313 403.9375 C312.34 403.628125 311.68 403.31875 311 403 C310.67 402.01 310.34 401.02 310 400 C307.98491642 399.26676204 307.98491642 399.26676204 306 399 C305.67 397.68 305.34 396.36 305 395 C303.68 394.67 302.36 394.34 301 394 C300.896875 393.360625 300.79375 392.72125 300.6875 392.0625 C300.3471875 391.0415625 300.3471875 391.0415625 300 390 C299.01 389.67 298.02 389.34 297 389 C296.33333333 387.66666667 295.66666667 386.33333333 295 385 C294.01 384.67 293.02 384.34 292 384 C291.33333333 382.66666667 290.66666667 381.33333333 290 380 C289.01 379.67 288.02 379.34 287 379 C286.33333333 377.66666667 285.66666667 376.33333333 285 375 C284.01 374.67 283.02 374.34 282 374 C281.67 373.01 281.34 372.02 281 371 C278.98491642 370.26676204 278.98491642 370.26676204 277 370 C278.41989547 374.51784923 280.6265277 376.73851018 284 380 C285.05407938 381.0500835 286.10607867 382.10225813 287.15625 383.15625 C287.70410156 383.70410156 288.25195312 384.25195312 288.81640625 384.81640625 C294.37760417 390.37760417 299.93880208 395.93880208 305.5 401.5 C306.10070312 402.09941406 306.70140625 402.69882812 307.3203125 403.31640625 C308.68140407 404.68066315 310.03013533 406.05724416 311.375 407.4375 C313.68908375 409.69648652 316.06289262 411.81407971 318.5 413.9375 C322.07386808 417.08534407 325.0310593 420.28882413 328 424 C330.39179247 426.45012887 332.82524731 428.8346934 335.3125 431.1875 C337 433 337 433 337 435 C337.61875 435.0825 338.2375 435.165 338.875 435.25 C341 436 341 436 342 437.8125 C342.33 438.534375 342.66 439.25625 343 440 C344.96364311 442.22546219 346.47916766 443.76190522 349.1875 445 C349.785625 445.33 350.38375 445.66 351 446 C351.33333333 447.33333333 351.66666667 448.66666667 352 450 C353.96672915 451.1500831 353.96672915 451.1500831 356 452 C356.33 452.66 356.66 453.32 357 454 C357.66 454.309375 358.32 454.61875 359 454.9375 C361 456 361 456 362 459 C364.88797217 461.57406215 367.78124924 463.85416616 371 466 C371 467.32 371 468.64 371 470 C372.32 470.33 373.64 470.66 375 471 C375 471.99 375 472.98 375 474 C376.65 474.33 378.3 474.66 380 475 C380 476.65 380 478.3 380 480 C378.35 479.67 376.7 479.34 375 479 C374.9175 478.38125 374.835 477.7625 374.75 477.125 C374.20005805 474.8234856 374.20005805 474.8234856 372 473.875 C371.34 473.58625 370.68 473.2975 370 473 C369.67 472.34 369.34 471.68 369 471 C368.34 470.690625 367.68 470.38125 367 470.0625 C365 469 365 469 364 466 C362.67151309 464.99357052 361.33849671 463.99307821 360 463 C360 462.34 360 461.68 360 461 C359.38125 460.9175 358.7625 460.835 358.125 460.75 C356 460 356 460 355 458.1875 C354.67 457.465625 354.34 456.74375 354 456 C352.03635689 453.77453781 350.52083234 452.23809478 347.8125 451 C347.214375 450.67 346.61625 450.34 346 450 C345.66666667 448.66666667 345.33333333 447.33333333 345 446 C343.0162233 444.71563266 343.0162233 444.71563266 341 444 C341 443.34 341 442.68 341 442 C340.195625 441.731875 339.39125 441.46375 338.5625 441.1875 C337.716875 440.795625 336.87125 440.40375 336 440 C335.67 439.01 335.34 438.02 335 437 C333.67151309 435.99357052 332.33849671 434.99307821 331 434 C331 433.34 331 432.68 331 432 C330.38125 431.9175 329.7625 431.835 329.125 431.75 C327 431 327 431 326 429.1875 C325.67 428.465625 325.34 427.74375 325 427 C323.03635689 424.77453781 321.52083234 423.23809478 318.8125 422 C318.214375 421.67 317.61625 421.34 317 421 C316.66666667 419.66666667 316.33333333 418.33333333 316 417 C314.0162233 415.71563266 314.0162233 415.71563266 312 415 C312 414.34 312 413.68 312 413 C311.195625 412.731875 310.39125 412.46375 309.5625 412.1875 C308.716875 411.795625 307.87125 411.40375 307 411 C306.67 410.01 306.34 409.02 306 408 C302.55835627 404.17302847 302.55835627 404.17302847 298 402 C297.67 400.35 297.34 398.7 297 397 C296.01 396.67 295.02 396.34 294 396 C293.67 395.34 293.34 394.68 293 394 C292.175 393.71125 291.35 393.4225 290.5 393.125 C289.675 392.75375 288.85 392.3825 288 392 C287.4375 390.125 287.4375 390.125 287 388 C284.47913869 384.92300689 284.47913869 384.92300689 280.875 383.5625 C280.25625 383.376875 279.6375 383.19125 279 383 C278.32558869 381.3364521 277.6599679 379.66933058 277 378 C274.33361156 375.53871837 272.44967045 374.14989015 269 373 C268.9175 372.05125 268.835 371.1025 268.75 370.125 C268.3609566 366.95800853 268.3609566 366.95800853 266.25 365.8125 C265.5075 365.544375 264.765 365.27625 264 365 C261.00861409 363.46782673 259.32584123 362.56281667 257.625 359.625 C256.00329192 357.00531771 254.99290058 356.15845687 252.5 354.5 C249.29892782 352.36817949 247.95910744 350.32196479 246 347 C245.030625 346.360625 244.06125 345.72125 243.0625 345.0625 C239.62417274 342.74689185 238.27741618 340.41612427 236 337 C234.00628175 335.65729179 232.0065438 334.32346506 230 333 C229.525625 332.195625 229.05125 331.39125 228.5625 330.5625 C226.98060311 327.9681891 225.96362742 327.14070385 223.5 325.5 C220.29892782 323.36817949 218.95910744 321.32196479 217 318 C215.03081154 316.62156808 213.03335209 315.28189588 211 314 C210.67 313.34 210.34 312.68 210 312 C208.35 312 206.7 312 205 312 C204.79375 312.53109375 204.5875 313.0621875 204.375 313.609375 C202.42038808 317.00773436 199.77876283 319.51055928 197 322.25 C196.4534375 322.80429687 195.906875 323.35859375 195.34375 323.9296875 C191.2533867 328 191.2533867 328 189 328 C188.72905518 328.5969165 188.45811035 329.19383301 188.17895508 329.80883789 C187.01563082 331.97094914 185.88073546 333.35093986 184.13671875 335.05859375 C183.30043945 335.88520508 183.30043945 335.88520508 182.44726562 336.72851562 C181.57618164 337.57446289 181.57618164 337.57446289 180.6875 338.4375 C180.11837891 338.99759766 179.54925781 339.55769531 178.96289062 340.13476562 C177.84020318 341.23940758 176.71564581 342.34215269 175.58911133 343.44287109 C173.3757834 345.61165363 171.18924116 347.80694484 169 350 C168.154375 350.825 167.30875 351.65 166.4375 352.5 C163.99103107 354.92763704 163.99103107 354.92763704 162 357.5 C159.27076017 360.91154978 156.42726608 364.02130326 152.8125 366.5 C150.78944453 367.91135331 150.78944453 367.91135331 150.125 370.5 C148.5661827 373.96403843 146.34256369 374.36282595 143 376 C141.15565651 378.46115547 141.15565651 378.46115547 140 381 C139.67 381.66 139.34 382.32 139 383 C136.4375 383.625 136.4375 383.625 134 384 C133.67 384.99 133.34 385.98 133 387 C132.34 387 131.68 387 131 387 C130.938125 387.78375 130.87625 388.5675 130.8125 389.375 C130.544375 390.24125 130.27625 391.1075 130 392 C127.625 393.125 127.625 393.125 125 394 C122.70947633 395.78151841 122.05499029 396.83502912 121.125 399.625 C120.568125 400.800625 120.568125 400.800625 120 402 C117.375 402.8125 117.375 402.8125 115 403 C114.67 403.99 114.34 404.98 114 406 C113.34 406.33 112.68 406.66 112 407 C111.5359375 408.2375 111.5359375 408.2375 111.0625 409.5 C110.711875 410.325 110.36125 411.15 110 412 C109.01 412.33 108.02 412.66 107 413 C106.67 413.99 106.34 414.98 106 416 C104.66666667 416.66666667 103.33333333 417.33333333 102 418 C101.67 418.99 101.34 419.98 101 421 C98.9375 421.6875 98.9375 421.6875 97 422 C96.67 423.32 96.34 424.64 96 426 C94.68 426.33 93.36 426.66 92 427 C91.896875 427.639375 91.79375 428.27875 91.6875 428.9375 C91.460625 429.618125 91.23375 430.29875 91 431 C90.01 431.33 89.02 431.66 88 432 C87.67 432.66 87.34 433.32 87 434 C86.67 434.66 86.34 435.32 86 436 C85.01 436.33 84.02 436.66 83 437 C82.67 437.66 82.34 438.32 82 439 C81.67 439.66 81.34 440.32 81 441 C80.01 441.33 79.02 441.66 78 442 C77.67 442.99 77.34 443.98 77 445 C74.9375 445.6875 74.9375 445.6875 73 446 C72.67 447.32 72.34 448.64 72 450 C70.68 450.33 69.36 450.66 68 451 C67.67 452.32 67.34 453.64 67 455 C65.68 455.33 64.36 455.66 63 456 C62.67 457.32 62.34 458.64 62 460 C61.38125 460.0825 60.7625 460.165 60.125 460.25 C57.81562433 460.81258459 57.81562433 460.81258459 56.75 463.0625 C56.5025 463.701875 56.255 464.34125 56 465 C55.34 465 54.68 465 54 465 C53.7525 465.804375 53.505 466.60875 53.25 467.4375 C52 470 52 470 49.875 470.8125 C48.946875 470.9053125 48.946875 470.9053125 48 471 C48 471.99 48 472.98 48 474 C46.68 474.33 45.36 474.66 44 475 C43.67 476.32 43.34 477.64 43 479 C41.68 479.33 40.36 479.66 39 480 C38.67 481.32 38.34 482.64 38 484 C36.68 484.33 35.36 484.66 34 485 C33.67 486.32 33.34 487.64 33 489 C31.02 489.33 29.04 489.66 27 490 C27 490.66 27 491.32 27 492 C20.24894632 493.12517561 13.73385072 493.68346268 7 492 C7.33 491.34 7.66 490.68 8 490 C14.27 489.67 20.54 489.34 27 489 C27.33 487.68 27.66 486.36 28 485 C28.61875 484.9175 29.2375 484.835 29.875 484.75 C32.16669871 484.20673909 32.16669871 484.20673909 33.0625 482.0625 C33.371875 481.381875 33.68125 480.70125 34 480 C34.99 479.34 35.98 478.68 37 478 C37.33 477.319375 37.66 476.63875 38 475.9375 C39 474 39 474 42 473 C43.62371502 471.43918026 43.62371502 471.43918026 45.125 469.5625 C45.64320312 468.94503906 46.16140625 468.32757813 46.6953125 467.69140625 C48.06840284 466.02334668 48.06840284 466.02334668 49 464 C49.99 463.67 50.98 463.34 52 463 C54.40709524 460.89379167 55.97660915 459.0411679 57.5625 456.25 C58.036875 455.5075 58.51125 454.765 59 454 C59.99 454 60.98 454 62 454 C62.37125 453.1646875 62.37125 453.1646875 62.75 452.3125 C65.04547076 448.06587909 67.9867061 444.94398294 71.63671875 441.83984375 C76.0187369 438.03888041 80.11270097 434.00049031 84.1875 429.875 C84.87263672 429.18535156 85.55777344 428.49570312 86.26367188 427.78515625 C87.58624826 426.45366934 88.90752159 425.12088645 90.22729492 423.78662109 C91.74683438 422.25515301 93.27848607 420.73571933 94.8125 419.21875 C96.59508679 417.41069769 98.22040386 415.59708283 99.8125 413.625 C103.16428168 409.64311837 107.01295798 406.32928128 111 403 C110.67 401.68 110.34 400.36 110 399 C109.34 399.33 108.68 399.66 108 400 C107.67 400.99 107.34 401.98 107 403 C105.66666667 403.66666667 104.33333333 404.33333333 103 405 C102.67 405.99 102.34 406.98 102 408 C101.01 408.33 100.02 408.66 99 409 C98.67 409.66 98.34 410.32 98 411 C97.67 411.66 97.34 412.32 97 413 C96.01 413.33 95.02 413.66 94 414 C93.26676204 416.01508358 93.26676204 416.01508358 93 418 C91.68 418.33 90.36 418.66 89 419 C88.67 420.32 88.34 421.64 88 423 C86.68 423.33 85.36 423.66 84 424 C83.67 425.32 83.34 426.64 83 428 C82.360625 428.103125 81.72125 428.20625 81.0625 428.3125 C80.0415625 428.6528125 80.0415625 428.6528125 79 429 C78.67 429.99 78.34 430.98 78 432 C75.9375 432.6875 75.9375 432.6875 74 433 C73.67 434.32 73.34 435.64 73 437 C71.68 437.33 70.36 437.66 69 438 C69 439.32 69 440.64 69 442 C67.35 442.33 65.7 442.66 64 443 C64 444.32 64 445.64 64 447 C62.68 447.33 61.36 447.66 60 448 C59.67 449.32 59.34 450.64 59 452 C57.68 452 56.36 452 55 452 C54.67 453.65 54.34 455.3 54 457 C52.68 457 51.36 457 50 457 C50 458.65 50 460.3 50 462 C48.68 462.33 47.36 462.66 46 463 C45.67 464.32 45.34 465.64 45 467 C44.38125 467.0825 43.7625 467.165 43.125 467.25 C40.82027141 467.79394438 40.82027141 467.79394438 39.9375 470 C39.628125 470.66 39.31875 471.32 39 472 C38.01 472.33 37.02 472.66 36 473 C35.67 473.99 35.34 474.98 35 476 C33.66666667 476.66666667 32.33333333 477.33333333 31 478 C30.67 478.99 30.34 479.98 30 481 C28.33333333 481.66666667 26.66666667 482.33333333 25 483 C24.67 483.99 24.34 484.98 24 486 C18.72 486 13.44 486 8 486 C7.67 484.35 7.34 482.7 7 481 C5.02 481 3.04 481 1 481 C0.896875 480.360625 0.79375 479.72125 0.6875 479.0625 C0.460625 478.381875 0.23375 477.70125 0 477 C-0.99 476.67 -1.98 476.34 -3 476 C-3.33 476.99 -3.66 477.98 -4 479 C-3.99924056 478.00912911 -3.99848112 477.01825822 -3.99769866 475.99736094 C-3.96437064 432.34168898 -3.93354609 388.68601566 -3.91531372 345.03033447 C-3.91503761 344.36971979 -3.91476149 343.70910511 -3.91447701 343.02847181 C-3.90849161 328.67257355 -3.90295119 314.31667516 -3.89786934 299.96077655 C-3.8953746 292.92095387 -3.8927815 285.88113122 -3.89013672 278.84130859 C-3.8898752 278.14075041 -3.88961368 277.44019222 -3.88934424 276.718405 C-3.88081697 253.99901018 -3.86579095 231.27962528 -3.84740556 208.56023648 C-3.82801706 184.55776134 -3.81601079 160.55529271 -3.81182301 136.55280995 C-3.80907372 122.16849558 -3.8003788 107.78420971 -3.78416707 93.3999041 C-3.7736253 83.54672402 -3.77039298 73.69355875 -3.77299725 63.84037343 C-3.77428293 58.14885942 -3.77226108 52.45739534 -3.76158905 46.76589012 C-3.75190037 41.56103133 -3.75133641 36.35625634 -3.75820221 31.1513938 C-3.75905155 29.26304273 -3.75647746 27.37468656 -3.75023364 25.48634562 C-3.74226794 22.92970573 -3.74649669 20.37337279 -3.75390434 17.81673813 C-3.74865032 17.07480817 -3.74339629 16.33287821 -3.73798305 15.56846553 C-3.76229382 11.88358786 -3.9603771 9.13095305 -6 6 C-5.01 6 -4.02 6 -3 6 C-2.67 6.99 -2.34 7.98 -2 9 C-1.01 8.67 -0.02 8.34 1 8 C1.33 7.01 1.66 6.02 2 5 C1.01 4.34 0.02 3.68 -1 3 C-0.67 2.01 -0.34 1.02 0 0 Z M36 40 C34.71005728 41.06596542 34.71005728 41.06596542 34.8758015 43.55435759 C34.87618122 44.70528991 34.87656094 45.85622223 34.87695217 47.04203129 C34.87579833 47.68307876 34.87464448 48.32412623 34.87345567 48.98459938 C34.87078277 51.15927828 34.87531665 53.33388495 34.87974548 55.50856018 C34.87930992 57.07272275 34.87843528 58.63688525 34.87715632 60.20104736 C34.87490846 64.51999371 34.87893659 68.83891551 34.88393438 73.15785873 C34.88823454 77.80750968 34.88679277 82.45715914 34.8860321 87.10681152 C34.88550659 95.16953932 34.88865622 103.23225905 34.89426994 111.29498482 C34.90238127 122.95247434 34.90499979 134.60995995 34.90625793 146.26745199 C34.90844903 165.1788732 34.91511068 184.09029011 34.92456055 203.00170898 C34.93373317 221.37735981 34.94081473 239.75300946 34.94506836 258.12866211 C34.94533108 259.26047071 34.94559381 260.39227931 34.94586449 261.55838514 C34.94716949 267.2360775 34.9484332 272.91376988 34.94967639 278.59146225 C34.96005081 325.72764448 34.97767069 372.86382202 35 420 C37.00613134 419.18468266 37.00613134 419.18468266 39 418 C39.81171228 415.44480079 39.81171228 415.44480079 40 413 C41.32 413 42.64 413 44 413 C44.33 411.35 44.66 409.7 45 408 C46.32 407.67 47.64 407.34 49 407 C49 406.01 49 405.02 49 404 C50.2065625 403.5978125 50.2065625 403.5978125 51.4375 403.1875 C52.283125 402.795625 53.12875 402.40375 54 402 C54.33 401.01 54.66 400.02 55 399 C55.99 398.67 56.98 398.34 58 398 C58.73323796 395.98491642 58.73323796 395.98491642 59 394 C60.32 393.67 61.64 393.34 63 393 C63.33 391.68 63.66 390.36 64 389 C65.32 388.67 66.64 388.34 68 388 C68.33 386.68 68.66 385.36 69 384 C69.639375 383.896875 70.27875 383.79375 70.9375 383.6875 C71.618125 383.460625 72.29875 383.23375 73 383 C73.33 382.01 73.66 381.02 74 380 C78.31818182 375.22727273 78.31818182 375.22727273 82 374 C82.68221455 372.67455459 83.34706306 371.34011028 84 370 C85.69921875 368.359375 85.69921875 368.359375 87.6875 366.75 C91.24459431 363.74709067 94.27876074 360.55989411 97.26171875 356.9921875 C99.39638102 354.54572063 101.69555827 352.28444078 104 350 C104.58078812 349.42407104 105.16157623 348.84814209 105.75996399 348.25476074 C107.08985343 346.93660225 108.41998699 345.61869001 109.75032043 344.30097961 C112.80498084 341.27301543 115.85440793 338.2398042 118.90356445 335.20629883 C120.51671208 333.60328753 122.13163849 332.00206439 123.74829102 330.40258789 C126.08295597 328.09204773 128.41122048 325.77522654 130.73828125 323.45703125 C131.83031609 322.38048027 131.83031609 322.38048027 132.94441223 321.28218079 C133.60897934 320.61776474 134.27354645 319.95334869 134.95825195 319.26879883 C135.54717728 318.68431473 136.1361026 318.09983063 136.74287415 317.49763489 C138.21430865 316.07057719 138.21430865 316.07057719 138 314 C138.53625 313.79375 139.0725 313.5875 139.625 313.375 C142.91978009 311.46749574 145.59363628 308.95180616 148 306 C148 305.34 148 304.68 148 304 C148.8353125 303.6596875 148.8353125 303.6596875 149.6875 303.3125 C152.63246684 301.64103234 154.68156544 299.44723648 157 297 C156.67 296.01 156.34 295.02 156 294 C154.68 294 153.36 294 152 294 C152.33 292.68 152.66 291.36 153 290 C154.32 289.67 155.64 289.34 157 289 C157.495 291.475 157.495 291.475 158 294 C161.81936528 292.44396229 164.26044438 290.04395069 167 287 C167 286.34 167 285.68 167 285 C165.35 284.67 163.7 284.34 162 284 C162 282.68 162 281.36 162 280 C163.65 279.67 165.3 279.34 167 279 C167 280.65 167 282.3 167 284 C168.98491642 283.73323796 168.98491642 283.73323796 171 283 C171.33 282.01 171.66 281.02 172 280 C173.32326112 279.31355829 174.65790347 278.64884446 176 278 C177.59754892 276.39519241 177.59754892 276.39519241 179 274.5625 C180.74233154 272.4265961 182.13758097 270.89862455 184.375 269.25 C185.179375 268.63125 185.179375 268.63125 186 268 C186 267.01 186 266.02 186 265 C184.35 265 182.7 265 181 265 C182.39253532 261.51866169 183.63176216 260.52113967 187 259 C187.33 258.34 187.66 257.68 188 257 C188.78375 256.690625 189.5675 256.38125 190.375 256.0625 C193.00845267 255.21457867 193.00845267 255.21457867 194.4375 253.4375 C198.59600069 249.61167937 206.5318026 250.8851946 211.875 250.9375 C212.75414062 250.94201172 213.63328125 250.94652344 214.5390625 250.95117188 C216.69273803 250.96287663 218.84637817 250.98080931 221 251 C221.33 252.32 221.66 253.64 222 255 C221.19256348 254.99476318 220.38512695 254.98952637 219.55322266 254.98413086 C215.91048962 254.96340071 212.26776898 254.95035251 208.625 254.9375 C207.35398437 254.92912109 206.08296875 254.92074219 204.7734375 254.91210938 C203.56171875 254.90888672 202.35 254.90566406 201.1015625 254.90234375 C199.42054443 254.89448853 199.42054443 254.89448853 197.70556641 254.88647461 C195.03132657 254.81378534 195.03132657 254.81378534 193 256 C192.67 256.99 192.34 257.98 192 259 C188.9375 260.1875 188.9375 260.1875 186 261 C186.33 261.99 186.66 262.98 187 264 C191.65052872 264.26932521 191.65052872 264.26932521 196 263 C196 261.68 196 260.36 196 259 C204.58 259 213.16 259 222 259 C222.33 260.65 222.66 262.3 223 264 C225.64 264 228.28 264 231 264 C231 262.68 231 261.36 231 260 C229.35 259.67 227.7 259.34 226 259 C226 258.34 226 257.68 226 257 C227.65 256.67 229.3 256.34 231 256 C231.99 258.475 231.99 258.475 233 261 C233.99 261 234.98 261 236 261 C236 261.99 236 262.98 236 264 C234.35 264.33 232.7 264.66 231 265 C232.5588334 268.82622743 234.95433582 271.25147379 238 274 C238.99 274.33 239.98 274.66 241 275 C241.33 273.35 241.66 271.7 242 270 C243.32 270 244.64 270 246 270 C246.33 271.65 246.66 273.3 247 275 C245.35 275 243.7 275 242 275 C242.26676204 276.98491642 242.26676204 276.98491642 243 279 C243.99 279.33 244.98 279.66 246 280 C246.66666667 281.33333333 247.33333333 282.66666667 248 284 C251.44296578 287.83111743 251.44296578 287.83111743 256 290 C256.6905786 291.32110689 257.35532724 292.65589463 258 294 C259.47043934 295.46149066 259.47043934 295.46149066 261.1875 296.75 C263.7821865 298.86759898 265.99261678 301.04615832 268.14453125 303.609375 C272.35372657 308.48924477 276.90926764 312.98179106 281.5 317.5 C286.69032872 322.60833301 291.76953045 327.71563656 296.4609375 333.29101562 C298.03190714 335.03542988 299.68678788 336.51222938 301.5 338 C304.83970972 340.74814679 307.5751093 343.82981583 310.375 347.1171875 C312.46490747 349.53866683 314.70900065 351.76929011 317 354 C317.86625 354.9075 318.7325 355.815 319.625 356.75 C321.86533112 359.19004674 321.86533112 359.19004674 325 360 C326.1875 362.5625 326.1875 362.5625 327 365 C327.99 365 328.98 365 330 365 C330.33 366.32 330.66 367.64 331 369 C332.32 369.33 333.64 369.66 335 370 C335.33 371.32 335.66 372.64 336 374 C337.32 374.33 338.64 374.66 340 375 C340.33 376.32 340.66 377.64 341 379 C341.99 379 342.98 379 344 379 C344.33 380.65 344.66 382.3 345 384 C346.32 384 347.64 384 349 384 C349.66 385.65 350.32 387.3 351 389 C351.99 389 352.98 389 354 389 C354.33 390.65 354.66 392.3 355 394 C356.32 394 357.64 394 359 394 C359.33 395.65 359.66 397.3 360 399 C361.32 399 362.64 399 364 399 C364.33 400.65 364.66 402.3 365 404 C366.32 404 367.64 404 369 404 C369 405.32 369 406.64 369 408 C370.32 408.33 371.64 408.66 373 409 C373.103125 409.639375 373.20625 410.27875 373.3125 410.9375 C373.6528125 411.9584375 373.6528125 411.9584375 374 413 C374.99 413.33 375.98 413.66 377 414 C378.01866229 415.65532623 379.01810813 417.32260138 380 419 C380.99 419.66 381.98 420.32 383 421 C383 295.6 383 170.2 383 41 C379.73542539 41 376.47085656 41.00107471 373.20628262 41.00279331 C371.42057973 41.00371836 371.42057973 41.00371836 369.59880203 41.0046621 C367.63496499 41.00568528 367.63496499 41.00568528 365.63145447 41.00672913 C326.71308889 41.02657817 287.79472398 41.04154247 248.87635445 41.05106533 C243.7840247 41.05231599 238.69169497 41.05361032 233.59936523 41.05493164 C232.58560515 41.05519395 231.57184506 41.05545626 230.52736498 41.05572652 C214.08526735 41.06008489 197.6431732 41.06797416 181.20107763 41.0771528 C164.33098161 41.08649198 147.46088741 41.09205603 130.5907889 41.09408849 C120.17848349 41.09546275 109.76618792 41.09980808 99.35388554 41.10791647 C92.22416337 41.11318718 85.09444631 41.11480355 77.96472233 41.11350138 C73.84694929 41.11285859 69.7291935 41.1138689 65.61142349 41.11920547 C61.8458063 41.12405028 58.08021807 41.12433148 54.31459958 41.12089889 C52.29888283 41.12027233 50.28316644 41.12460426 48.26745456 41.12908131 C46.4856633 41.12609474 46.4856633 41.12609474 44.66787624 41.12304783 C43.6383444 41.12342755 42.60881255 41.12380727 41.54808277 41.1241985 C39 41 39 41 36 40 Z M208 298 C204.36366461 301.47998507 204.36366461 301.47998507 203 306 C201.68 306.33 200.36 306.66 199 307 C198.67 308.32 198.34 309.64 198 311 C199.65 311 201.3 311 203 311 C203.33 309.68 203.66 308.36 204 307 C205.32 306.67 206.64 306.34 208 306 C208 304.68 208 303.36 208 302 C208.66 302 209.32 302 210 302 C210.33 303.65 210.66 305.3 211 307 C211.99 307 212.98 307 214 307 C214.33 308.32 214.66 309.64 215 311 C216.32 311.33 217.64 311.66 219 312 C219.33 313.65 219.66 315.3 220 317 C221.32 317 222.64 317 224 317 C224.33 318.32 224.66 319.64 225 321 C226.32 321 227.64 321 229 321 C228.505 318.525 228.505 318.525 228 316 C227.01 315.67 226.02 315.34 225 315 C224.67 314.01 224.34 313.02 224 312 C221.98491642 311.26676204 221.98491642 311.26676204 220 311 C219.67 309.68 219.34 308.36 219 307 C217.68 306.67 216.36 306.34 215 306 C214.87625 305.13375 214.87625 305.13375 214.75 304.25 C213.78202213 301.3460664 212.31305716 299.96259396 210 298 C209.34 298 208.68 298 208 298 Z M194 312 C193.67 312.99 193.34 313.98 193 315 C190.9375 316.1875 190.9375 316.1875 189 317 C189 318.32 189 319.64 189 321 C190.65 321 192.3 321 194 321 C194 319.35 194 317.7 194 316 C195.65 315.67 197.3 315.34 199 315 C198.67 313.68 198.34 312.36 198 311 C195.9254644 310.8509288 195.9254644 310.8509288 194 312 Z M185 321 C184.731875 321.639375 184.46375 322.27875 184.1875 322.9375 C183 325 183 325 180 326 C179.26676204 328.01508358 179.26676204 328.01508358 179 330 C181.475 330.495 181.475 330.495 184 331 C184.33 329.35 184.66 327.7 185 326 C186.32 326 187.64 326 189 326 C189 324.35 189 322.7 189 321 C187.68 321 186.36 321 185 321 Z M229 321 C229 322.65 229 324.3 229 326 C229.61875 326.0825 230.2375 326.165 230.875 326.25 C233 327 233 327 234.25 329.0625 C234.4975 329.701875 234.745 330.34125 235 331 C236.32 331 237.64 331 239 331 C238.67 329.35 238.34 327.7 238 326 C237.01 325.67 236.02 325.34 235 325 C233.8125 322.9375 233.8125 322.9375 233 321 C231.68 321 230.36 321 229 321 Z M175 331 C174.67 332.32 174.34 333.64 174 335 C173.360625 335.103125 172.72125 335.20625 172.0625 335.3125 C171.381875 335.539375 170.70125 335.76625 170 336 C169.67 336.99 169.34 337.98 169 339 C167.66666667 339.66666667 166.33333333 340.33333333 165 341 C164.67 341.99 164.34 342.98 164 344 C161.9375 345.1875 161.9375 345.1875 160 346 C160 347.32 160 348.64 160 350 C162.28836222 350.41986946 162.28836222 350.41986946 165 350 C168.22968679 347.35752899 170.52613972 345.26474248 171 341 C172.32 340.67 173.64 340.34 175 340 C175 338.68 175 337.36 175 336 C176.32 336 177.64 336 179 336 C179 334.35 179 332.7 179 331 C177.68 331 176.36 331 175 331 Z M239 331 C238.49620971 333.28694223 238.49620971 333.28694223 239 336 C241.72152236 338.89299854 241.72152236 338.89299854 245 341 C245.99 341 246.98 341 248 341 C248.12375 342.11375 248.12375 342.11375 248.25 343.25 C249.16725859 346.61328151 250.22244915 347.91683686 253 350 C255.66834966 350.33498301 255.66834966 350.33498301 258 350 C257.505 347.525 257.505 347.525 257 345 C255.68 345 254.36 345 253 345 C253 343.68 253 342.36 253 341 C252.01 340.67 251.02 340.34 250 340 C249.690625 339.34 249.38125 338.68 249.0625 338 C248.17972859 335.79394438 248.17972859 335.79394438 245.875 335.25 C245.25625 335.1675 244.6375 335.085 244 335 C243.67 333.68 243.34 332.36 243 331 C241.68 331 240.36 331 239 331 Z M156 350 C155.731875 350.639375 155.46375 351.27875 155.1875 351.9375 C154 354 154 354 151 355 C150.67 355.66 150.34 356.32 150 357 C149.67 357.66 149.34 358.32 149 359 C148.01 359.33 147.02 359.66 146 360 C145.26676204 362.01508358 145.26676204 362.01508358 145 364 C143.68 364.33 142.36 364.66 141 365 C140.67 366.32 140.34 367.64 140 369 C141.80589063 369.75999157 141.80589063 369.75999157 144 370 C146.00118168 368.9329832 146.00118168 368.9329832 147.75 367.25 C148.36359375 366.71890625 148.9771875 366.1878125 149.609375 365.640625 C151.32329668 363.97703171 151.32329668 363.97703171 151 361 C152.66666667 360 154.33333333 359 156 358 C156 357.01 156 356.02 156 355 C157.32 355 158.64 355 160 355 C160 353.35 160 351.7 160 350 C158.68 350 157.36 350 156 350 Z M259 350 C258.67 351.65 258.34 353.3 258 355 C260.86505744 357.68664503 260.86505744 357.68664503 264 360 C266.32171592 359.96624167 266.32171592 359.96624167 268 359 C267.67 357.68 267.34 356.36 267 355 C265.68 355 264.36 355 263 355 C262.896875 354.360625 262.79375 353.72125 262.6875 353.0625 C262.3471875 352.0415625 262.3471875 352.0415625 262 351 C261.01 350.67 260.02 350.34 259 350 Z M268 360 C267.49620971 362.28694223 267.49620971 362.28694223 268 365 C270.72152236 367.89299854 270.72152236 367.89299854 274 370 C274.99 370 275.98 370 277 370 C277 368.35 277 366.7 277 365 C276.38125 364.731875 275.7625 364.46375 275.125 364.1875 C273 363 273 363 271 360 C270.01 360 269.02 360 268 360 Z M138 369 C137.54625 369.61875 137.0925 370.2375 136.625 370.875 C134.89720611 373.13442278 133.59186772 373.92750301 131 375 C131 376.32 131 377.64 131 379 C129.68 379.33 128.36 379.66 127 380 C126.67 381.32 126.34 382.64 126 384 C124.68 384 123.36 384 122 384 C121.67 385.65 121.34 387.3 121 389 C119.68 389.33 118.36 389.66 117 390 C117 390.99 117 391.98 117 393 C115.35 393.33 113.7 393.66 112 394 C112 395.65 112 397.3 112 399 C115.56050965 398.69481346 117.00035037 397.99971192 119.8125 395.6875 C122.4208476 393.06049684 122.4208476 393.06049684 122 389 C122.721875 388.95875 123.44375 388.9175 124.1875 388.875 C127.47835526 387.85117836 128.6870871 386.31264789 130.74609375 383.62109375 C133.66079742 379.85286315 137.11541017 376.73360025 141 374 C140.67 372.35 140.34 370.7 140 369 C139.34 369 138.68 369 138 369 Z " fill="#262626" transform="translate(65,27)"/>
<path d="M0 0 C112.2 0 224.4 0 340 0 C340 120.78 340 241.56 340 366 C336.23077307 364.74359102 334.574302 362.99175638 332 360 C332 358.68 332 357.36 332 356 C331.360625 355.896875 330.72125 355.79375 330.0625 355.6875 C329.0415625 355.3471875 329.0415625 355.3471875 328 355 C327.67 354.01 327.34 353.02 327 352 C324.98491642 351.26676204 324.98491642 351.26676204 323 351 C322.9175 350.38125 322.835 349.7625 322.75 349.125 C322.20605562 346.82027141 322.20605562 346.82027141 320 345.9375 C319.34 345.628125 318.68 345.31875 318 345 C317.67 344.01 317.34 343.02 317 342 C314.98491642 341.26676204 314.98491642 341.26676204 313 341 C313 339.68 313 338.36 313 337 C311.68 336.67 310.36 336.34 309 336 C308.67 334.68 308.34 333.36 308 332 C306.68 332 305.36 332 304 332 C303.9175 331.38125 303.835 330.7625 303.75 330.125 C303.18741541 327.81562433 303.18741541 327.81562433 300.9375 326.75 C300.298125 326.5025 299.65875 326.255 299 326 C299 324.68 299 323.36 299 322 C297.35 322 295.7 322 294 322 C294 320.35 294 318.7 294 317 C292.35 316.67 290.7 316.34 289 316 C289 314.68 289 313.36 289 312 C287.35 311.67 285.7 311.34 284 311 C284 309.68 284 308.36 284 307 C282.68 307 281.36 307 280 307 C279.67 305.68 279.34 304.36 279 303 C277.68 302.67 276.36 302.34 275 302 C275 300.68 275 299.36 275 298 C273.35 297.67 271.7 297.34 270 297 C270 295.68 270 294.36 270 293 C268.35 293 266.7 293 265 293 C265 291.35 265 289.7 265 288 C263.35 287.67 261.7 287.34 260 287 C260 286.01 260 285.02 260 284 C258.68 283.67 257.36 283.34 256 283 C255.67 281.68 255.34 280.36 255 279 C253.35 278.67 251.7 278.34 250 278 C250 276.68 250 275.36 250 274 C248.68 273.67 247.36 273.34 246 273 C246 271.68 246 270.36 246 269 C244.35 269 242.7 269 241 269 C241 267.35 241 265.7 241 264 C239.35 263.67 237.7 263.34 236 263 C236 262.01 236 261.02 236 260 C234.35 259.67 232.7 259.34 231 259 C231 257.68 231 256.36 231 255 C229.68 254.67 228.36 254.34 227 254 C227 252.35 227 250.7 227 249 C228.875 249.3125 228.875 249.3125 231 250 C231.66 250.99 232.32 251.98 233 253 C233.99 253.33 234.98 253.66 236 254 C236.268125 254.5775 236.53625 255.155 236.8125 255.75 C238.79163641 259.49994266 242.213578 262.106789 246 264 C246.4640625 264.9590625 246.4640625 264.9590625 246.9375 265.9375 C247.95345922 268.31971493 247.95345922 268.31971493 251 270 C251 270.99 251 271.98 251 273 C252.65 273.33 254.3 273.66 256 274 C256 275.32 256 276.64 256 278 C257.32 278.33 258.64 278.66 260 279 C260.33 280.32 260.66 281.64 261 283 C261.87978516 283.12568359 261.87978516 283.12568359 262.77734375 283.25390625 C265.6442253 284.21625138 266.67431429 285.60155661 268.5625 287.9375 C270.67531519 290.53028657 272.17546286 292.11697524 275 294 C275 294.99 275 295.98 275 297 C276.32 297.33 277.64 297.66 279 298 C279.33 299.32 279.66 300.64 280 302 C281.32 302.33 282.64 302.66 284 303 C284.33 304.32 284.66 305.64 285 307 C286.32 307.33 287.64 307.66 289 308 C289.33 309.32 289.66 310.64 290 312 C290.87978516 312.12568359 290.87978516 312.12568359 291.77734375 312.25390625 C294.6442253 313.21625138 295.67431429 314.60155661 297.5625 316.9375 C299.67531519 319.53028657 301.17546286 321.11697524 304 323 C304 323.99 304 324.98 304 326 C305.32 326.33 306.64 326.66 308 327 C308.33 328.32 308.66 329.64 309 331 C310.32 331.33 311.64 331.66 313 332 C313.33 333.32 313.66 334.64 314 336 C315.32 336.33 316.64 336.66 318 337 C318.33 338.32 318.66 339.64 319 341 C320.32 341.33 321.64 341.66 323 342 C323 342.99 323 343.98 323 345 C323.804375 345.268125 324.60875 345.53625 325.4375 345.8125 C326.283125 346.204375 327.12875 346.59625 328 347 C328.33 347.99 328.66 348.98 329 350 C330.32848691 351.00642948 331.66150329 352.00692179 333 353 C333 353.66 333 354.32 333 355 C334.32 355 335.64 355 337 355 C337 239.83 337 124.66 337 6 C227.77 6 118.54 6 6 6 C5.67 121.17 5.34 236.34 5 355 C5.66 354.67 6.32 354.34 7 354 C7.33 353.01 7.66 352.02 8 351 C10.0625 350.3125 10.0625 350.3125 12 350 C12 348.68 12 347.36 12 346 C13.65 345.67 15.3 345.34 17 345 C17.33 343.68 17.66 342.36 18 341 C18.99 341 19.98 341 21 341 C21.33 339.35 21.66 337.7 22 336 C23.32 336 24.64 336 26 336 C26.66 334.35 27.32 332.7 28 331 C28.99 331 29.98 331 31 331 C31.33 329.68 31.66 328.36 32 327 C33.32 326.67 34.64 326.34 36 326 C36 324.68 36 323.36 36 322 C37.65 321.67 39.3 321.34 41 321 C41.33 319.68 41.66 318.36 42 317 C42.99 317 43.98 317 45 317 C45.0825 316.21625 45.165 315.4325 45.25 314.625 C46 312 46 312 47.9375 310.875 C48.9584375 310.441875 48.9584375 310.441875 50 310 C50.66 309.01 51.32 308.02 52 307 C52.99 307 53.98 307 55 307 C55.33 305.35 55.66 303.7 56 302 C57.32 302 58.64 302 60 302 C60.33 300.68 60.66 299.36 61 298 C62.32 297.67 63.64 297.34 65 297 C65 295.68 65 294.36 65 293 C66.65 292.67 68.3 292.34 70 292 C70.33 290.68 70.66 289.36 71 288 C71.99 288 72.98 288 74 288 C74.0825 287.21625 74.165 286.4325 74.25 285.625 C75 283 75 283 76.9375 281.875 C77.618125 281.58625 78.29875 281.2975 79 281 C79.66 280.01 80.32 279.02 81 278 C81.99 278 82.98 278 84 278 C84.33 276.35 84.66 274.7 85 273 C86.32 273 87.64 273 89 273 C89.33 271.68 89.66 270.36 90 269 C91.32 268.67 92.64 268.34 94 268 C94 266.68 94 265.36 94 264 C95.65 263.67 97.3 263.34 99 263 C99 264.98 99 266.96 99 269 C97.68 269 96.36 269 95 269 C94.67 270.32 94.34 271.64 94 273 C92.68 273.33 91.36 273.66 90 274 C89.67 275.65 89.34 277.3 89 279 C87.68 279 86.36 279 85 279 C85 280.32 85 281.64 85 283 C83.35 283 81.7 283 80 283 C80 284.65 80 286.3 80 288 C78.35 288 76.7 288 75 288 C75 289.65 75 291.3 75 293 C73.35 293 71.7 293 70 293 C70 294.65 70 296.3 70 298 C68.35 298 66.7 298 65 298 C65 299.65 65 301.3 65 303 C63.68 302.67 62.36 302.34 61 302 C61 303.65 61 305.3 61 307 C60.34 307.33 59.68 307.66 59 308 C58.01 307.67 57.02 307.34 56 307 C56 308.65 56 310.3 56 312 C54.35 312 52.7 312 51 312 C51 313.65 51 315.3 51 317 C49.35 317 47.7 317 46 317 C46 318.65 46 320.3 46 322 C44.35 322 42.7 322 41 322 C41.185625 322.639375 41.37125 323.27875 41.5625 323.9375 C41.706875 324.618125 41.85125 325.29875 42 326 C41 327 41 327 38.4375 327.0625 C37.633125 327.041875 36.82875 327.02125 36 327 C36 328.65 36 330.3 36 332 C34.68 331.67 33.36 331.34 32 331 C31.67 332.65 31.34 334.3 31 336 C30.01 336.33 29.02 336.66 28 337 C26.78130071 339.50447516 26.78130071 339.50447516 26 342 C25.01 342 24.02 342 23 342 C22.67 343.32 22.34 344.64 22 346 C20.68 346.33 19.36 346.66 18 347 C17.67 348.32 17.34 349.64 17 351 C15.68 351.33 14.36 351.66 13 352 C12.505 353.98 12.505 353.98 12 356 C10.68 356 9.36 356 8 356 C7.814375 357.2065625 7.814375 357.2065625 7.625 358.4375 C7.41875 359.283125 7.2125 360.12875 7 361 C6.34 361.33 5.68 361.66 5 362 C4.67 362.99 4.34 363.98 4 365 C1.9375 365.6875 1.9375 365.6875 0 366 C-1.04786998 362.56740861 -1.11856902 359.43351101 -1.10743046 355.85432053 C-1.10519194 353.95089044 -1.10519194 353.95089044 -1.10290819 352.00900722 C-1.09612587 350.59802504 -1.08924999 349.18704332 -1.08229065 347.77606201 C-1.07859708 346.27943306 -1.07534775 344.78280296 -1.07250541 343.28617215 C-1.0633939 339.16781732 -1.04796249 335.04950644 -1.03152263 330.93117523 C-1.0149019 326.49222302 -1.00410879 322.05325625 -0.99261475 317.61428833 C-0.97189476 309.92156471 -0.94746689 302.22885998 -0.92053413 294.5361557 C-0.88159903 283.41374018 -0.84823494 272.29131347 -0.81623887 261.16887608 C-0.7641781 243.12428951 -0.7075999 225.07972003 -0.64819336 207.03515625 C-0.59048857 189.50456406 -0.53491512 171.97396724 -0.48217773 154.44335938 C-0.47889223 153.35209527 -0.47560673 152.26083117 -0.47222167 151.13649845 C-0.44654429 142.60233781 -0.4209907 134.06817679 -0.39547622 125.53401566 C-0.27034194 83.68932105 -0.13440914 41.84466783 0 0 Z " fill="#000000" transform="translate(104,72)"/>
<path d="M0 0 C1.32 0.66 2.64 1.32 4 2 C4 153.47 4 304.94 4 461 C2.68 461.66 1.36 462.32 0 463 C-1.2375574 459.16885846 -1.13874443 455.35612856 -1.12584114 451.37625694 C-1.1280213 450.21285251 -1.1280213 450.21285251 -1.13024551 449.02594495 C-1.13391211 446.41159478 -1.13041601 443.79730268 -1.12698364 441.18295288 C-1.12813519 439.29589197 -1.12972295 437.40883129 -1.13171089 435.52177107 C-1.13589943 430.32414442 -1.13381564 425.12653604 -1.13072467 419.9289093 C-1.12846891 414.32834243 -1.13195105 408.72777877 -1.13470459 403.12721252 C-1.1391592 392.15147237 -1.13818723 381.17573903 -1.13529195 370.1999986 C-1.13303694 361.28372881 -1.13272582 352.36746094 -1.13381577 343.45119095 C-1.133969 342.18397027 -1.13412223 340.91674959 -1.13428011 339.61112828 C-1.13459982 337.03711687 -1.13492403 334.46310547 -1.1352527 331.88909407 C-1.13802512 308.42297137 -1.13514639 284.95685327 -1.1299101 261.49073139 C-1.12516321 240.05469133 -1.12558994 218.6186572 -1.13037109 197.18261719 C-1.13572169 173.1129291 -1.13783298 149.04324506 -1.13475883 124.97355616 C-1.13444027 122.40942995 -1.1341259 119.84530373 -1.13381577 117.28117752 C-1.13366149 116.0194405 -1.13350721 114.75770349 -1.13334826 113.45773201 C-1.13248315 104.54639914 -1.13394584 95.63506836 -1.13629532 86.72373581 C-1.13909332 75.87227297 -1.138355 65.02081738 -1.13301457 54.16935538 C-1.13037774 48.6279466 -1.12937222 43.08654992 -1.13266373 37.54514122 C-1.13562697 32.4799634 -1.13403339 27.41480897 -1.12868617 22.34963329 C-1.12756213 20.50989118 -1.1281529 18.67014712 -1.13056196 16.83040623 C-1.13356964 14.34426234 -1.13051757 11.85820027 -1.12584114 9.37206078 C-1.12818231 8.64527233 -1.13052347 7.91848388 -1.13293558 7.16967154 C-1.11415041 2.22830082 -1.11415041 2.22830082 0 0 Z " fill="#737373" transform="translate(491,39)"/>
<path d="M0 0 C0.66 0 1.32 0 2 0 C2.103125 0.639375 2.20625 1.27875 2.3125 1.9375 C2.539375 2.618125 2.76625 3.29875 3 4 C3.99 4.33 4.98 4.66 6 5 C6.66666667 6.33333333 7.33333333 7.66666667 8 9 C8.99 9.33 9.98 9.66 11 10 C11.6875 12.0625 11.6875 12.0625 12 14 C12.9590625 14.1546875 12.9590625 14.1546875 13.9375 14.3125 C14.618125 14.539375 15.29875 14.76625 16 15 C16.33 15.99 16.66 16.98 17 18 C19.01508358 18.73323796 19.01508358 18.73323796 21 19 C21.33 20.65 21.66 22.3 22 24 C22.99 24.33 23.98 24.66 25 25 C25.99 26.485 25.99 26.485 27 28 C29.05925139 28.72382467 29.05925139 28.72382467 31 29 C31 30.65 31 32.3 31 34 C32.32 34.66 33.64 35.32 35 36 C35 36.66 35 37.32 35 38 C36.65 38.33 38.3 38.66 40 39 C40.0825 39.598125 40.165 40.19625 40.25 40.8125 C41.20548903 43.599343 42.6450848 44.32876986 45 46 C45 46.66 45 47.32 45 48 C46.65 48 48.3 48 50 48 C50.33 47.34 50.66 46.68 51 46 C50.8453125 47.60875 50.8453125 47.60875 50.6875 49.25 C50.62644043 53.07720792 50.62644043 53.07720792 53.1875 55.4375 C56.15156124 57.08420069 57.67648571 57.3798302 61 57 C60.938125 57.94875 60.87625 58.8975 60.8125 59.875 C60.9053125 61.421875 60.9053125 61.421875 61 63 C61.99 63.66 62.98 64.32 64 65 C64 65.66 64 66.32 64 67 C65.175625 67.0928125 65.175625 67.0928125 66.375 67.1875 C67.24125 67.455625 68.1075 67.72375 69 68 C69.72904086 69.64034193 70.38655243 71.31301918 71 73 C72.62494469 74.70736942 74.30098017 76.36632709 76 78 C77.05441058 79.04975093 78.10639869 80.10193937 79.15625 81.15625 C79.70410156 81.70410156 80.25195312 82.25195312 80.81640625 82.81640625 C86.37760417 88.37760417 91.93880208 93.93880208 97.5 99.5 C98.40105469 100.39912109 98.40105469 100.39912109 99.3203125 101.31640625 C100.68140407 102.68066315 102.03013533 104.05724416 103.375 105.4375 C105.68908375 107.69648652 108.06289262 109.81407971 110.5 111.9375 C114.07386808 115.08534407 117.0310593 118.28882413 120 122 C122.39179247 124.45012887 124.82524731 126.8346934 127.3125 129.1875 C129 131 129 131 129 133 C129.61875 133.0825 130.2375 133.165 130.875 133.25 C133 134 133 134 134 135.8125 C134.33 136.534375 134.66 137.25625 135 138 C136.96364311 140.22546219 138.47916766 141.76190522 141.1875 143 C141.785625 143.33 142.38375 143.66 143 144 C143.33333333 145.33333333 143.66666667 146.66666667 144 148 C145.96672915 149.1500831 145.96672915 149.1500831 148 150 C148.33 150.66 148.66 151.32 149 152 C149.66 152.309375 150.32 152.61875 151 152.9375 C153 154 153 154 154 157 C156.88797217 159.57406215 159.78124924 161.85416616 163 164 C163 165.32 163 166.64 163 168 C164.32 168.33 165.64 168.66 167 169 C167 169.99 167 170.98 167 172 C168.65 172.33 170.3 172.66 172 173 C172 174.65 172 176.3 172 178 C170.35 177.67 168.7 177.34 167 177 C166.9175 176.38125 166.835 175.7625 166.75 175.125 C166.20005805 172.8234856 166.20005805 172.8234856 164 171.875 C163.34 171.58625 162.68 171.2975 162 171 C161.67 170.34 161.34 169.68 161 169 C160.34 168.690625 159.68 168.38125 159 168.0625 C157 167 157 167 156 164 C154.67151309 162.99357052 153.33849671 161.99307821 152 161 C152 160.34 152 159.68 152 159 C151.38125 158.9175 150.7625 158.835 150.125 158.75 C148 158 148 158 147 156.1875 C146.67 155.465625 146.34 154.74375 146 154 C144.03635689 151.77453781 142.52083234 150.23809478 139.8125 149 C139.214375 148.67 138.61625 148.34 138 148 C137.66666667 146.66666667 137.33333333 145.33333333 137 144 C135.0162233 142.71563266 135.0162233 142.71563266 133 142 C133 141.34 133 140.68 133 140 C132.195625 139.731875 131.39125 139.46375 130.5625 139.1875 C129.716875 138.795625 128.87125 138.40375 128 138 C127.67 137.01 127.34 136.02 127 135 C125.67151309 133.99357052 124.33849671 132.99307821 123 132 C123 131.34 123 130.68 123 130 C122.38125 129.9175 121.7625 129.835 121.125 129.75 C119 129 119 129 118 127.1875 C117.67 126.465625 117.34 125.74375 117 125 C115.03635689 122.77453781 113.52083234 121.23809478 110.8125 120 C110.214375 119.67 109.61625 119.34 109 119 C108.66666667 117.66666667 108.33333333 116.33333333 108 115 C106.0162233 113.71563266 106.0162233 113.71563266 104 113 C104 112.34 104 111.68 104 111 C103.195625 110.731875 102.39125 110.46375 101.5625 110.1875 C100.716875 109.795625 99.87125 109.40375 99 109 C98.67 108.01 98.34 107.02 98 106 C94.55835627 102.17302847 94.55835627 102.17302847 90 100 C89.67 98.35 89.34 96.7 89 95 C88.01 94.67 87.02 94.34 86 94 C85.67 93.34 85.34 92.68 85 92 C84.175 91.71125 83.35 91.4225 82.5 91.125 C81.2625 90.568125 81.2625 90.568125 80 90 C79.4375 88.125 79.4375 88.125 79 86 C76.47913869 82.92300689 76.47913869 82.92300689 72.875 81.5625 C72.25625 81.376875 71.6375 81.19125 71 81 C70.32558869 79.3364521 69.6599679 77.66933058 69 76 C66.33361156 73.53871837 64.44967045 72.14989015 61 71 C60.9175 70.05125 60.835 69.1025 60.75 68.125 C60.3609566 64.95800853 60.3609566 64.95800853 58.25 63.8125 C57.5075 63.544375 56.765 63.27625 56 63 C53.00861409 61.46782673 51.32584123 60.56281667 49.625 57.625 C48.00329192 55.00531771 46.99290058 54.15845687 44.5 52.5 C41.29892782 50.36817949 39.95910744 48.32196479 38 45 C37.030625 44.360625 36.06125 43.72125 35.0625 43.0625 C31.62417274 40.74689185 30.27741618 38.41612427 28 35 C26.00628175 33.65729179 24.0065438 32.32346506 22 31 C21.525625 30.195625 21.05125 29.39125 20.5625 28.5625 C18.98060311 25.9681891 17.96362742 25.14070385 15.5 23.5 C12.29892782 21.36817949 10.95910744 19.32196479 9 16 C7.03081154 14.62156808 5.03335209 13.28189588 3 12 C2.67 11.34 2.34 10.68 2 10 C0.35 10 -1.3 10 -3 10 C-3.20625 10.53109375 -3.4125 11.0621875 -3.625 11.609375 C-5.57961192 15.00773436 -8.22123717 17.51055928 -11 20.25 C-11.81984375 21.08144531 -11.81984375 21.08144531 -12.65625 21.9296875 C-16.7466133 26 -16.7466133 26 -19 26 C-19.27094482 26.5969165 -19.54188965 27.19383301 -19.82104492 27.80883789 C-20.98436918 29.97094914 -22.11926454 31.35093986 -23.86328125 33.05859375 C-24.42080078 33.60966797 -24.97832031 34.16074219 -25.55273438 34.72851562 C-26.42381836 35.57446289 -26.42381836 35.57446289 -27.3125 36.4375 C-27.88162109 36.99759766 -28.45074219 37.55769531 -29.03710938 38.13476562 C-30.15979682 39.23940758 -31.28435419 40.34215269 -32.41088867 41.44287109 C-34.6242166 43.61165363 -36.81075884 45.80694484 -39 48 C-39.845625 48.825 -40.69125 49.65 -41.5625 50.5 C-44.00896893 52.92763704 -44.00896893 52.92763704 -46 55.5 C-48.72923983 58.91154978 -51.57273392 62.02130326 -55.1875 64.5 C-57.21055547 65.91135331 -57.21055547 65.91135331 -57.875 68.5 C-59.4338173 71.96403843 -61.65743631 72.36282595 -65 74 C-66.84434349 76.46115547 -66.84434349 76.46115547 -68 79 C-68.33 79.66 -68.66 80.32 -69 81 C-71.5625 81.625 -71.5625 81.625 -74 82 C-74.495 83.485 -74.495 83.485 -75 85 C-75.66 85 -76.32 85 -77 85 C-77.0928125 86.175625 -77.0928125 86.175625 -77.1875 87.375 C-77.5896875 88.674375 -77.5896875 88.674375 -78 90 C-80.375 91.125 -80.375 91.125 -83 92 C-85.29052367 93.78151841 -85.94500971 94.83502912 -86.875 97.625 C-87.431875 98.800625 -87.431875 98.800625 -88 100 C-90.625 100.8125 -90.625 100.8125 -93 101 C-93.495 102.485 -93.495 102.485 -94 104 C-94.99 104.495 -94.99 104.495 -96 105 C-96.4640625 106.2375 -96.4640625 106.2375 -96.9375 107.5 C-97.288125 108.325 -97.63875 109.15 -98 110 C-99.485 110.495 -99.485 110.495 -101 111 C-101.495 112.485 -101.495 112.485 -102 114 C-103.33333333 114.66666667 -104.66666667 115.33333333 -106 116 C-106.495 117.485 -106.495 117.485 -107 119 C-109.0625 119.6875 -109.0625 119.6875 -111 120 C-111.495 121.98 -111.495 121.98 -112 124 C-113.32 124.33 -114.64 124.66 -116 125 C-116.103125 125.639375 -116.20625 126.27875 -116.3125 126.9375 C-116.539375 127.618125 -116.76625 128.29875 -117 129 C-117.99 129.33 -118.98 129.66 -120 130 C-120.33 130.66 -120.66 131.32 -121 132 C-121.33 132.66 -121.66 133.32 -122 134 C-122.99 134.33 -123.98 134.66 -125 135 C-125.33 135.66 -125.66 136.32 -126 137 C-126.33 137.66 -126.66 138.32 -127 139 C-127.99 139.33 -128.98 139.66 -130 140 C-130.33 140.99 -130.66 141.98 -131 143 C-133.0625 143.6875 -133.0625 143.6875 -135 144 C-135.33 145.32 -135.66 146.64 -136 148 C-137.32 148.33 -138.64 148.66 -140 149 C-140.33 150.32 -140.66 151.64 -141 153 C-142.32 153.33 -143.64 153.66 -145 154 C-145.33 155.32 -145.66 156.64 -146 158 C-146.61875 158.0825 -147.2375 158.165 -147.875 158.25 C-150.18437567 158.81258459 -150.18437567 158.81258459 -151.25 161.0625 C-151.4975 161.701875 -151.745 162.34125 -152 163 C-152.66 163 -153.32 163 -154 163 C-154.2475 163.804375 -154.495 164.60875 -154.75 165.4375 C-156 168 -156 168 -158.125 168.8125 C-158.74375 168.874375 -159.3625 168.93625 -160 169 C-160 169.99 -160 170.98 -160 172 C-161.32 172.33 -162.64 172.66 -164 173 C-164.33 174.32 -164.66 175.64 -165 177 C-166.32 177.33 -167.64 177.66 -169 178 C-169.33 179.32 -169.66 180.64 -170 182 C-171.32 182.33 -172.64 182.66 -174 183 C-174.33 184.32 -174.66 185.64 -175 187 C-176.98 187.33 -178.96 187.66 -181 188 C-181 188.66 -181 189.32 -181 190 C-187.75105368 191.12517561 -194.26614928 191.68346268 -201 190 C-200.505 189.01 -200.505 189.01 -200 188 C-193.73 187.67 -187.46 187.34 -181 187 C-180.67 185.68 -180.34 184.36 -180 183 C-179.38125 182.9175 -178.7625 182.835 -178.125 182.75 C-175.83330129 182.20673909 -175.83330129 182.20673909 -174.9375 180.0625 C-174.628125 179.381875 -174.31875 178.70125 -174 178 C-172.515 177.01 -172.515 177.01 -171 176 C-170.67 175.319375 -170.34 174.63875 -170 173.9375 C-169 172 -169 172 -166 171 C-164.37628498 169.43918026 -164.37628498 169.43918026 -162.875 167.5625 C-162.35679687 166.94503906 -161.83859375 166.32757813 -161.3046875 165.69140625 C-159.93159716 164.02334668 -159.93159716 164.02334668 -159 162 C-158.01 161.67 -157.02 161.34 -156 161 C-153.59290476 158.89379167 -152.02339085 157.0411679 -150.4375 154.25 C-149.7259375 153.13625 -149.7259375 153.13625 -149 152 C-148.01 152 -147.02 152 -146 152 C-145.7525 151.443125 -145.505 150.88625 -145.25 150.3125 C-142.95452924 146.06587909 -140.0132939 142.94398294 -136.36328125 139.83984375 C-131.9812631 136.03888041 -127.88729903 132.00049031 -123.8125 127.875 C-122.78479492 126.84052734 -122.78479492 126.84052734 -121.73632812 125.78515625 C-120.41375174 124.45366934 -119.09247841 123.12088645 -117.77270508 121.78662109 C-116.25316562 120.25515301 -114.72151393 118.73571933 -113.1875 117.21875 C-111.40491321 115.41069769 -109.77959614 113.59708283 -108.1875 111.625 C-105.32851318 108.20761732 -102.11356549 105.45063608 -98.63671875 102.67578125 C-96.79946158 100.79467546 -96.38585171 99.5667527 -96 97 C-95.1646875 96.9071875 -95.1646875 96.9071875 -94.3125 96.8125 C-90.972841 95.6391063 -89.28499253 93.65553186 -87 91 C-86.13880866 88.82653432 -86.13880866 88.82653432 -86 87 C-85.443125 86.95875 -84.88625 86.9175 -84.3125 86.875 C-80.705605 85.51022892 -79.26961504 83.08919824 -77 80 C-77 79.34 -77 78.68 -77 78 C-76.21625 77.9175 -75.4325 77.835 -74.625 77.75 C-71.85955198 77.28474077 -71.85955198 77.28474077 -70.8125 75 C-70.544375 74.34 -70.27625 73.68 -70 73 C-69.34 72.67 -68.68 72.34 -68 72 C-68 70.35 -68 68.7 -68 67 C-66.02 67 -64.04 67 -62 67 C-61.71125 66.360625 -61.4225 65.72125 -61.125 65.0625 C-60 63 -60 63 -58 62 C-58 60.68 -58 59.36 -58 58 C-56.7934375 57.5978125 -56.7934375 57.5978125 -55.5625 57.1875 C-54.716875 56.795625 -53.87125 56.40375 -53 56 C-52.67 55.01 -52.34 54.02 -52 53 C-50.68 53 -49.36 53 -48 53 C-48 51.35 -48 49.7 -48 48 C-47.2575 47.9175 -46.515 47.835 -45.75 47.75 C-42.38573588 46.83247342 -41.12940379 45.73780488 -39 43 C-38.20318682 40.35815459 -38.20318682 40.35815459 -38 38 C-36.68 38 -35.36 38 -34 38 C-33.67 36.68 -33.34 35.36 -33 34 C-31.68 34 -30.36 34 -29 34 C-29 32.35 -29 30.7 -29 29 C-29.66 28.67 -30.32 28.34 -31 28 C-28.69 28.33 -26.38 28.66 -24 29 C-23.67 27.35 -23.34 25.7 -23 24 C-21.68 24 -20.36 24 -19 24 C-19 22.35 -19 20.7 -19 19 C-17.35 19 -15.7 19 -14 19 C-14 17.35 -14 15.7 -14 14 C-12.68 13.67 -11.36 13.34 -10 13 C-10 11.68 -10 10.36 -10 9 C-8.35 8.67 -6.7 8.34 -5 8 C-4.67 7.01 -4.34 6.02 -4 5 C-3.01 4.67 -2.02 4.34 -1 4 C-0.26676204 1.98491642 -0.26676204 1.98491642 0 0 Z " fill="#000000" transform="translate(273,329)"/>
<path d="M0 0 C128.04 0 256.08 0 388 0 C388.33 1.32 388.66 2.64 389 4 C260.63 4 132.26 4 0 4 C0 2.68 0 1.36 0 0 Z " fill="#000000" transform="translate(80,18)"/>
<path d="M0 0 C0.33 0 0.66 0 1 0 C1 115.17 1 230.34 1 349 C1.66 348.67 2.32 348.34 3 348 C3.33 347.01 3.66 346.02 4 345 C6.0625 344.3125 6.0625 344.3125 8 344 C8 342.68 8 341.36 8 340 C9.65 339.67 11.3 339.34 13 339 C13.33 337.68 13.66 336.36 14 335 C14.99 335 15.98 335 17 335 C17.33 333.35 17.66 331.7 18 330 C19.32 330 20.64 330 22 330 C22.66 328.35 23.32 326.7 24 325 C24.99 325 25.98 325 27 325 C27.33 323.68 27.66 322.36 28 321 C29.32 320.67 30.64 320.34 32 320 C32 318.68 32 317.36 32 316 C33.65 315.67 35.3 315.34 37 315 C37.33 313.68 37.66 312.36 38 311 C38.99 311 39.98 311 41 311 C41.0825 310.21625 41.165 309.4325 41.25 308.625 C42 306 42 306 43.9375 304.875 C44.9584375 304.441875 44.9584375 304.441875 46 304 C46.66 303.01 47.32 302.02 48 301 C48.99 301 49.98 301 51 301 C51.33 299.35 51.66 297.7 52 296 C53.32 296 54.64 296 56 296 C56.33 294.68 56.66 293.36 57 292 C58.32 291.67 59.64 291.34 61 291 C61 289.68 61 288.36 61 287 C62.65 286.67 64.3 286.34 66 286 C66.33 284.68 66.66 283.36 67 282 C67.99 282 68.98 282 70 282 C70.0825 281.21625 70.165 280.4325 70.25 279.625 C71 277 71 277 72.9375 275.875 C73.618125 275.58625 74.29875 275.2975 75 275 C75.66 274.01 76.32 273.02 77 272 C77.99 272 78.98 272 80 272 C80.33 270.35 80.66 268.7 81 267 C82.32 267 83.64 267 85 267 C85.33 265.68 85.66 264.36 86 263 C87.32 262.67 88.64 262.34 90 262 C90 260.68 90 259.36 90 258 C91.65 257.67 93.3 257.34 95 257 C95 258.98 95 260.96 95 263 C93.68 263 92.36 263 91 263 C90.67 264.32 90.34 265.64 90 267 C88.68 267.33 87.36 267.66 86 268 C85.67 269.65 85.34 271.3 85 273 C83.68 273 82.36 273 81 273 C81 274.32 81 275.64 81 277 C79.35 277 77.7 277 76 277 C76 278.65 76 280.3 76 282 C74.35 282 72.7 282 71 282 C71 283.65 71 285.3 71 287 C69.35 287 67.7 287 66 287 C66 288.65 66 290.3 66 292 C64.35 292 62.7 292 61 292 C61 293.65 61 295.3 61 297 C59.68 296.67 58.36 296.34 57 296 C57 297.65 57 299.3 57 301 C56.34 301.33 55.68 301.66 55 302 C54.01 301.67 53.02 301.34 52 301 C52 302.65 52 304.3 52 306 C50.35 306 48.7 306 47 306 C47 307.65 47 309.3 47 311 C45.35 311 43.7 311 42 311 C42 312.65 42 314.3 42 316 C40.35 316 38.7 316 37 316 C37.185625 316.639375 37.37125 317.27875 37.5625 317.9375 C37.706875 318.618125 37.85125 319.29875 38 320 C37 321 37 321 34.4375 321.0625 C33.633125 321.041875 32.82875 321.02125 32 321 C32 322.65 32 324.3 32 326 C30.68 325.67 29.36 325.34 28 325 C27.67 326.65 27.34 328.3 27 330 C26.01 330.33 25.02 330.66 24 331 C22.78130071 333.50447516 22.78130071 333.50447516 22 336 C21.01 336 20.02 336 19 336 C18.67 337.32 18.34 338.64 18 340 C16.68 340.33 15.36 340.66 14 341 C13.67 342.32 13.34 343.64 13 345 C11.68 345.33 10.36 345.66 9 346 C8.505 347.98 8.505 347.98 8 350 C6.68 350 5.36 350 4 350 C3.814375 351.2065625 3.814375 351.2065625 3.625 352.4375 C3.41875 353.283125 3.2125 354.12875 3 355 C2.34 355.33 1.68 355.66 1 356 C0.67 356.99 0.34 357.98 0 359 C-2.0625 359.6875 -2.0625 359.6875 -4 360 C-4.33 358.68 -4.66 357.36 -5 356 C-4.01 355.67 -3.02 355.34 -2 355 C-1.22542703 350.88817618 -0.87608939 347.01139356 -0.87974548 342.82966137 C-0.87837113 341.60611012 -0.87699678 340.38255886 -0.87558079 339.1219303 C-0.87912429 337.77254538 -0.88275882 336.4231607 -0.88647461 335.07377625 C-0.88675472 333.6338801 -0.88659145 332.19398381 -0.88602352 330.75408775 C-0.88572818 326.80181444 -0.89165993 322.84957122 -0.89859343 318.89730489 C-0.90496946 314.63354943 -0.90553669 310.36979282 -0.9067688 306.10603333 C-0.90965495 298.72001857 -0.91609315 291.33401381 -0.92483521 283.94800377 C-0.93738364 273.26798575 -0.9434645 262.58797145 -0.94776857 251.90794728 C-0.95483508 234.57884668 -0.96563776 217.24975075 -0.97949219 199.9206543 C-0.98032 198.88357568 -0.98114781 197.84649705 -0.98200071 196.77799181 C-0.98790261 189.41449446 -0.99393734 182.05099722 -1 174.6875 C-1.00693036 166.26749682 -1.01379665 157.84749359 -1.02050781 149.42749023 C-1.02175 147.87149116 -1.02175 147.87149116 -1.02301729 146.28405776 C-1.0366831 129.01388482 -1.04645241 111.74371179 -1.05341816 94.47353488 C-1.05790861 83.81387721 -1.06596763 73.15423333 -1.07856297 62.49458209 C-1.08696214 55.19950012 -1.09187328 47.90442134 -1.09398818 40.60933485 C-1.09533865 36.39458178 -1.09838211 32.17984654 -1.10574722 27.96509933 C-1.11245302 24.1133159 -1.11464141 20.26155836 -1.11311162 16.40976963 C-1.11338498 15.01020817 -1.1153836 13.61064585 -1.1192044 12.21108957 C-1.12412807 10.32111041 -1.1224003 8.43111729 -1.12025452 6.54113293 C-1.12117631 5.48762368 -1.1220981 4.43411444 -1.12304783 3.34868068 C-1 1 -1 1 0 0 Z " fill="#000000" transform="translate(108,78)"/>
<path d="M0 0 C1.98 0.99 1.98 0.99 4 2 C4.02287616 47.39457994 4.04050322 92.78915928 4.05106533 138.18374385 C4.05231607 143.539895 4.05361039 148.89604613 4.05493164 154.25219727 C4.05519395 155.31853519 4.05545626 156.38487311 4.05572652 157.4835243 C4.06008084 174.76194019 4.0679671 192.04035276 4.0771528 209.31876668 C4.08649592 227.04077509 4.09205701 244.76278176 4.09408849 262.48479253 C4.09546235 273.42502913 4.09980553 284.36525634 4.10791647 295.30549005 C4.11319204 302.80203061 4.11480244 310.2985663 4.11350138 317.79510858 C4.11285928 322.12372901 4.11386118 326.45233302 4.11920547 330.78095055 C4.12406006 334.74174276 4.12432502 338.70250745 4.12089889 342.66330091 C4.12047524 344.09810502 4.12175361 345.53291083 4.12488318 346.96771159 C4.12888432 348.91492356 4.1261407 350.86214592 4.12304783 352.80935955 C4.12342755 353.89194221 4.12380727 354.97452487 4.1241985 356.08991307 C4.00698979 358.83622263 3.62266321 361.32741243 3 364 C2.01 363.34 1.02 362.68 0 362 C-0.37259549 359.43044841 -0.37259549 359.43044841 -0.36914349 356.10041618 C-0.37511663 354.83544489 -0.38108978 353.57047359 -0.38724393 352.26716983 C-0.37868367 350.85030194 -0.36984685 349.43343569 -0.36076355 348.01657104 C-0.36207064 346.52166553 -0.36469527 345.02676068 -0.36853105 343.53185952 C-0.37526707 339.40892131 -0.36320082 335.2862151 -0.34819686 331.16330647 C-0.33528543 326.72294554 -0.33962248 322.28259853 -0.34190369 317.84222412 C-0.34347953 310.14398962 -0.33403791 302.44583118 -0.31719017 294.74761581 C-0.29284677 283.61719289 -0.28499968 272.48680688 -0.2812262 261.35636021 C-0.27465438 243.29956432 -0.25467344 225.24280901 -0.22631836 207.18603516 C-0.19879666 189.64176639 -0.17755384 172.09750864 -0.16479492 154.55322266 C-0.16400675 153.4724557 -0.16321858 152.39168875 -0.16240653 151.27817129 C-0.15849152 145.85647883 -0.15470037 140.4347863 -0.15097082 135.01309371 C-0.11985218 90.00870103 -0.06699655 45.0043526 0 0 Z " fill="#4D4D4D" transform="translate(104,72)"/>
<path d="M0 0 C0.33 0 0.66 0 1 0 C1 152.79 1 305.58 1 463 C1.66 463 2.32 463 3 463 C3 464.98 3 466.96 3 469 C2.360625 469.268125 1.72125 469.53625 1.0625 469.8125 C-1.33131686 470.88667752 -1.33131686 470.88667752 -2 474 C-3.65 474.33 -5.3 474.66 -7 475 C-7.33 475.99 -7.66 476.98 -8 478 C-14.23447916 479.03907986 -20.86888158 480.04370614 -27 478 C-27 477.34 -27 476.68 -27 476 C-17.595 475.505 -17.595 475.505 -8 475 C-7.01 473.02 -7.01 473.02 -6 471 C-5.14676142 470.41807601 -4.29352283 469.83615201 -3.41442853 469.23659396 C-0.66332047 467.1381232 -0.66332047 467.1381232 -0.37259549 463.50878835 C-0.34586637 462.07760688 -0.34680296 460.64575331 -0.36914349 459.21449661 C-0.36168589 458.42141072 -0.3542283 457.62832484 -0.34654471 456.81120604 C-0.32754001 454.13695454 -0.34432661 451.46410772 -0.36076355 448.78985596 C-0.3544559 446.86011382 -0.34595553 444.9303778 -0.33544332 443.00065398 C-0.31286674 437.68501692 -0.32152903 432.36981219 -0.3351289 427.05416131 C-0.34436631 421.32680469 -0.32486559 415.59953908 -0.30880737 409.87220764 C-0.28492922 399.94496648 -0.27936823 390.01784951 -0.28615379 380.0905838 C-0.29593829 365.73734936 -0.27824474 351.38425299 -0.25378648 337.03104088 C-0.21485607 313.74546227 -0.19818873 290.45992512 -0.19555664 267.17431641 C-0.19294648 244.55092354 -0.17986454 221.92757639 -0.15258789 199.30419922 C-0.15175147 198.60700121 -0.15091504 197.90980321 -0.15005327 197.19147799 C-0.14164206 190.19000846 -0.13301778 183.18853921 -0.12423737 176.18707013 C-0.05060637 117.45805832 -0.01293869 58.72905611 0 0 Z " fill="#000000" transform="translate(486,41)"/>
<path d="M0 0 C1.32 0.66 2.64 1.32 4 2 C4 153.47 4 304.94 4 461 C2.68 461.66 1.36 462.32 0 463 C-0.33 460.36 -0.66 457.72 -1 455 C-0.67 455.66 -0.34 456.32 0 457 C0.66 456.67 1.32 456.34 2 456 C2 307.17 2 158.34 2 5 C1.01 5 0.02 5 -1 5 C-0.67 3.35 -0.34 1.7 0 0 Z " fill="#000000" transform="translate(491,39)"/>
<path d="M0 0 C0.495 1.98 0.495 1.98 1 4 C-8.57 4.33 -18.14 4.66 -28 5 C-28.33 6.32 -28.66 7.64 -29 9 C-30.65 9.33 -32.3 9.66 -34 10 C-34 10.99 -34 11.98 -34 13 C-33.01 13.33 -32.02 13.66 -31 14 C-32.32 14.99 -33.64 15.98 -35 17 C-35 16.01 -35 15.02 -35 14 C-36.65 14 -38.3 14 -40 14 C-39.75 12.125 -39.75 12.125 -39 10 C-37.0625 8.9375 -37.0625 8.9375 -35 8 C-34.34 7.01 -33.68 6.02 -33 5 C-30.375 4.3125 -30.375 4.3125 -28 4 C-27.67 3.01 -27.34 2.02 -27 1 C-19.18227341 -1.97073611 -8.01339491 -2.52948072 0 0 Z " fill="#000000" transform="translate(286,278)"/>
<path d="M0 0 C0.99 0 1.98 0 3 0 C3 1.98 3 3.96 3 6 C2.360625 6.268125 1.72125 6.53625 1.0625 6.8125 C-1.33131686 7.88667752 -1.33131686 7.88667752 -2 11 C-3.65 11.33 -5.3 11.66 -7 12 C-7.33 12.99 -7.66 13.98 -8 15 C-14.23447916 16.03907986 -20.86888158 17.04370614 -27 15 C-27 14.34 -27 13.68 -27 13 C-20.73 12.67 -14.46 12.34 -8 12 C-7.34 10.68 -6.68 9.36 -6 8 C-5.154375 7.34 -4.30875 6.68 -3.4375 6 C-0.91933482 3.93381319 -0.3380332 3.15497657 0 0 Z " fill="#080808" transform="translate(486,504)"/>
<path d="M0 0 C3.3114019 0.57093136 4.75054423 1.54604826 7 4 C7.66 4.33 8.32 4.66 9 5 C9.309375 5.639375 9.61875 6.27875 9.9375 6.9375 C10.95345922 9.31971493 10.95345922 9.31971493 14 11 C14 11.99 14 12.98 14 14 C12.35 14 10.7 14 9 14 C8.34 12.68 7.68 11.36 7 10 C6.01 10 5.02 10 4 10 C4 8.02 4 6.04 4 4 C2.35 4.33 0.7 4.66 -1 5 C-0.67 3.35 -0.34 1.7 0 0 Z " fill="#000000" transform="translate(312,302)"/>
<path d="M0 0 C0.66 0 1.32 0 2 0 C2.66 4.29 3.32 8.58 4 13 C0 12 0 12 -2 10 C-2.31537716 5.66356399 -2.44897847 3.67346771 0 0 Z " fill="#000000" transform="translate(55,492)"/>
<path d="M0 0 C1.65 0 3.3 0 5 0 C5.268125 0.639375 5.53625 1.27875 5.8125 1.9375 C6.88667752 4.33131686 6.88667752 4.33131686 10 5 C10.33 5.99 10.66 6.98 11 8 C10 9 10 9 7.4375 9.0625 C6.633125 9.041875 5.82875 9.02125 5 9 C4.67 9.66 4.34 10.32 4 11 C4 10.34 4 9.68 4 9 C3.34 8.67 2.68 8.34 2 8 C2.99 7.67 3.98 7.34 5 7 C5 6.34 5 5.68 5 5 C3.02 4.34 1.04 3.68 -1 3 C-0.67 2.01 -0.34 1.02 0 0 Z " fill="#000000" transform="translate(291,283)"/>
<path d="M0 0 C1.32 0 2.64 0 4 0 C4.125 7.625 4.125 7.625 3 11 C2.01 10.67 1.02 10.34 0 10 C-1.36952673 7.26094655 -1.12621361 5.02912668 -1 2 C-0.67 1.34 -0.34 0.68 0 0 Z " fill="#000000" transform="translate(54,37)"/>
<path d="M0 0 C1.32 0.33 2.64 0.66 4 1 C4 1.99 4 2.98 4 4 C5.65 4.33 7.3 4.66 9 5 C9.33 6.32 9.66 7.64 10 9 C8.02 9 6.04 9 4 9 C3.67 7.35 3.34 5.7 3 4 C2.01 3.67 1.02 3.34 0 3 C0 2.01 0 1.02 0 0 Z " fill="#000000" transform="translate(446,507)"/>
<path d="M0 0 C3.96 0 7.92 0 12 0 C12.33 0.99 12.66 1.98 13 3 C8.38 3 3.76 3 -1 3 C-0.67 2.01 -0.34 1.02 0 0 Z " fill="#474747" transform="translate(268,279)"/>
<path d="M0 0 C1.32 0 2.64 0 4 0 C4.66 1.98 5.32 3.96 6 6 C3.37886292 6 1.49064888 5.68707555 -1 5 C-0.67 3.35 -0.34 1.7 0 0 Z " fill="#000000" transform="translate(218,316)"/>
<path d="M0 0 C0 1.65 0 3.3 0 5 C0.66 5.33 1.32 5.66 2 6 C1.01 6.495 1.01 6.495 0 7 C-2.625 6.0625 -2.625 6.0625 -5 5 C-5 3.68 -5 2.36 -5 1 C-3 0 -3 0 0 0 Z " fill="#000000" transform="translate(232,306)"/>
<path d="M0 0 C1.32 0 2.64 0 4 0 C4.33 1.65 4.66 3.3 5 5 C3.35 5 1.7 5 0 5 C-0.33 5.66 -0.66 6.32 -1 7 C-1.33 6.34 -1.66 5.68 -2 5 C-1.0625 2.375 -1.0625 2.375 0 0 Z " fill="#000000" transform="translate(307,297)"/>
<path d="M0 0 C1.32 0 2.64 0 4 0 C4.33 1.65 4.66 3.3 5 5 C3.02 5 1.04 5 -1 5 C-0.67 3.35 -0.34 1.7 0 0 Z " fill="#000000" transform="translate(208,326)"/>
<path d="M0 0 C2.475 0.495 2.475 0.495 5 1 C5 2.32 5 3.64 5 5 C3.35 5.33 1.7 5.66 0 6 C0 4.02 0 2.04 0 0 Z " fill="#000000" transform="translate(326,316)"/>
<path d="M0 0 C1.65 0.33 3.3 0.66 5 1 C5 2.32 5 3.64 5 5 C2.03 4.505 2.03 4.505 -1 4 C-0.67 2.68 -0.34 1.36 0 0 Z " fill="#000000" transform="translate(475,22)"/>
<path d="M0 0 C1.65 0.33 3.3 0.66 5 1 C5.33 1.99 5.66 2.98 6 4 C3.69 4 1.38 4 -1 4 C-0.67 2.68 -0.34 1.36 0 0 Z " fill="#000000" transform="translate(69,22)"/>
<path d="M0 0 C1.32 0.33 2.64 0.66 4 1 C3.67 1.66 3.34 2.32 3 3 C2.01 3 1.02 3 0 3 C-0.33 3.99 -0.66 4.98 -1 6 C-1.33 5.01 -1.66 4.02 -2 3 C-3.65 3 -5.3 3 -7 3 C-7 2.67 -7 2.34 -7 2 C-4.69 2 -2.38 2 0 2 C0 1.34 0 0.68 0 0 Z " fill="#000000" transform="translate(481,28)"/>
<path d="M0 0 C0 1.65 0 3.3 0 5 C-1.65 5 -3.3 5 -5 5 C-4.625 3.0625 -4.625 3.0625 -4 1 C-2 0 -2 0 0 0 Z " fill="#000000" transform="translate(227,311)"/>
<path d="M0 0 C1.98 0.66 3.96 1.32 6 2 C6 2.66 6 3.32 6 4 C4.02 4 2.04 4 0 4 C0 2.68 0 1.36 0 0 Z " fill="#000000" transform="translate(64,511)"/>
<path d="M0 0 C0.99 0 1.98 0 3 0 C3.33 1.65 3.66 3.3 4 5 C2.35 4.67 0.7 4.34 -1 4 C-0.67 2.68 -0.34 1.36 0 0 Z " fill="#000000" transform="translate(233,302)"/>
<path d="M0 0 C0.99 0 1.98 0 3 0 C3.33 1.65 3.66 3.3 4 5 C2.35 4.67 0.7 4.34 -1 4 C-0.67 2.68 -0.34 1.36 0 0 Z " fill="#000000" transform="translate(238,297)"/>
<path d="M0 0 C1.98 0 3.96 0 6 0 C6 0.66 6 1.32 6 2 C6.99 2.33 7.98 2.66 9 3 C6.03 2.67 3.06 2.34 0 2 C0 1.34 0 0.68 0 0 Z " fill="#000000" transform="translate(459,517)"/>
<path d="M0 0 C0.66 0.33 1.32 0.66 2 1 C2 1.66 2 2.32 2 3 C3.98 3 5.96 3 8 3 C6.3125 4.125 6.3125 4.125 4 5 C1.25 4.125 1.25 4.125 -1 3 C-0.67 2.01 -0.34 1.02 0 0 Z " fill="#000000" transform="translate(65,27)"/>
<path d="M0 0 C0 1.65 0 3.3 0 5 C-1.32 4.67 -2.64 4.34 -4 4 C-4 3.01 -4 2.02 -4 1 C-2 0 -2 0 0 0 Z " fill="#000000" transform="translate(217,321)"/>
<path d="M0 0 C0.99 0.33 1.98 0.66 3 1 C3 1.99 3 2.98 3 4 C1.68 4.33 0.36 4.66 -1 5 C-0.67 3.35 -0.34 1.7 0 0 Z " fill="#000000" transform="translate(303,292)"/>
<path d="M0 0 C0.99 0 1.98 0 3 0 C3.33 1.32 3.66 2.64 4 4 C2.35 4 0.7 4 -1 4 C-0.67 2.68 -0.34 1.36 0 0 Z " fill="#000000" transform="translate(204,331)"/>
<path d="M0 0 C0.66 0.33 1.32 0.66 2 1 C1.67 2.32 1.34 3.64 1 5 C0.01 4.67 -0.98 4.34 -2 4 C-2 3.01 -2 2.02 -2 1 C-1.34 0.67 -0.68 0.34 0 0 Z " fill="#000000" transform="translate(244,292)"/>
<path d="M0 0 C0.66 0.33 1.32 0.66 2 1 C2 1.99 2 2.98 2 4 C1.34 4 0.68 4 0 4 C-0.33 4.66 -0.66 5.32 -1 6 C-1.042721 4.33388095 -1.04063832 2.66617115 -1 1 C-0.67 0.67 -0.34 0.34 0 0 Z " fill="#000000" transform="translate(487,32)"/>
<path d="" fill="#000000" transform="translate(0,0)"/>
<path d="" fill="#000000" transform="translate(0,0)"/>
</svg>
